<svg xmlns="http://www.w3.org/2000/svg" xmlns:xlink="http://www.w3.org/1999/xlink" width="500" zoomAndPan="magnify" viewBox="0 0 375 374.999991" height="500" preserveAspectRatio="xMidYMid meet" version="1.0"><defs><g/><clipPath id="16cc3c94a6"><path d="M 63 118 L 210 118 L 210 319 L 63 319 Z M 63 118 " clip-rule="nonzero"/></clipPath><clipPath id="ebb1da1f2a"><path d="M 133.394531 118.628906 L 209.835938 287.46875 L 140.246094 318.976562 L 63.804688 150.132812 Z M 133.394531 118.628906 " clip-rule="nonzero"/></clipPath><clipPath id="3316bde8d6"><path d="M 0.601562 0.558594 L 147 0.558594 L 147 201 L 0.601562 201 Z M 0.601562 0.558594 " clip-rule="nonzero"/></clipPath><clipPath id="168cd735da"><path d="M 70.394531 0.628906 L 146.835938 169.46875 L 77.246094 200.976562 L 0.804688 32.132812 Z M 70.394531 0.628906 " clip-rule="nonzero"/></clipPath><clipPath id="1aa110a4c9"><rect x="0" width="147" y="0" height="201"/></clipPath><clipPath id="61a7a524b1"><path d="M 56.050781 165.140625 L 302.445312 165.140625 L 302.445312 215.988281 L 56.050781 215.988281 Z M 56.050781 165.140625 " clip-rule="nonzero"/></clipPath><clipPath id="7306838e33"><path d="M 0.0507812 0.140625 L 246.445312 0.140625 L 246.445312 50.988281 L 0.0507812 50.988281 Z M 0.0507812 0.140625 " clip-rule="nonzero"/></clipPath><clipPath id="46b2d0897f"><rect x="0" width="247" y="0" height="51"/></clipPath><clipPath id="922506873d"><rect x="0" width="164" y="0" height="81"/></clipPath></defs><rect x="-37.5" width="450" fill="#ffffff" y="-37.499999" height="449.999989" fill-opacity="1"/><rect x="-37.5" width="450" fill="#ebe2d5" y="-37.499999" height="449.999989" fill-opacity="1"/><g clip-path="url(#16cc3c94a6)"><g clip-path="url(#ebb1da1f2a)"><g transform="matrix(1, 0, 0, 1, 63, 118)"><g clip-path="url(#1aa110a4c9)"><g clip-path="url(#3316bde8d6)"><g clip-path="url(#168cd735da)"><path fill="#ece2d6" d="M 70.394531 0.628906 L 146.824219 169.441406 L 77.234375 200.945312 L 0.804688 32.132812 Z M 70.394531 0.628906 " fill-opacity="1" fill-rule="nonzero"/></g></g></g></g></g></g><g fill="#000000" fill-opacity="1"><g transform="translate(80.379933, 255.085274)"><g><path d="M 8.0625 -26.109375 C 8.0625 -29.222656 8.972656 -31.851562 10.796875 -34 C 12.617188 -36.15625 14.820312 -37.234375 17.40625 -37.234375 C 19.875 -37.234375 21.992188 -36.128906 23.765625 -33.921875 C 25.535156 -31.722656 26.046875 -28.6875 25.296875 -24.8125 C 24.328125 -19.550781 24.625 -15.203125 26.1875 -11.765625 C 27.75 -8.328125 30.191406 -5.773438 33.515625 -4.109375 C 36.847656 -2.441406 40.664062 -1.609375 44.96875 -1.609375 C 50.445312 -1.609375 55.601562 -2.84375 60.4375 -5.3125 C 65.269531 -7.789062 69.160156 -11.820312 72.109375 -17.40625 C 75.066406 -22.988281 76.546875 -30.457031 76.546875 -39.8125 C 76.546875 -53.882812 76.546875 -67.957031 76.546875 -82.03125 C 76.546875 -96.101562 76.546875 -110.175781 76.546875 -124.25 C 76.546875 -135.207031 75.820312 -143.691406 74.375 -149.703125 C 72.925781 -155.722656 69.515625 -159.109375 64.140625 -159.859375 L 64.140625 -161.15625 L 108.625 -161.15625 L 108.625 -159.859375 C 103.25 -159.109375 99.832031 -155.722656 98.375 -149.703125 C 96.925781 -143.691406 96.203125 -135.207031 96.203125 -124.25 C 96.203125 -110.28125 96.203125 -96.335938 96.203125 -82.421875 C 96.203125 -68.515625 96.203125 -54.578125 96.203125 -40.609375 C 96.203125 -27.179688 92.007812 -16.519531 83.625 -8.625 C 75.25 -0.726562 62.414062 3.21875 45.125 3.21875 C 36.53125 3.21875 29.492188 1.71875 24.015625 -1.28125 C 18.535156 -4.289062 14.503906 -8.078125 11.921875 -12.640625 C 9.347656 -17.210938 8.0625 -21.703125 8.0625 -26.109375 Z M 8.0625 -26.109375 "/></g></g></g><g fill="#000000" fill-opacity="1"><g transform="translate(169.630995, 255.085274)"><g><path d="M 81.21875 3.21875 C 71.65625 3.21875 62.738281 1.234375 54.46875 -2.734375 C 46.195312 -6.710938 38.945312 -12.40625 32.71875 -19.8125 C 26.488281 -27.226562 21.625 -36.066406 18.125 -46.328125 C 14.632812 -56.585938 12.890625 -68.003906 12.890625 -80.578125 C 12.890625 -93.148438 14.632812 -104.566406 18.125 -114.828125 C 21.625 -125.085938 26.515625 -133.921875 32.796875 -141.328125 C 39.078125 -148.742188 46.378906 -154.4375 54.703125 -158.40625 C 63.035156 -162.382812 71.984375 -164.375 81.546875 -164.375 C 88.097656 -164.375 93.707031 -163.972656 98.375 -163.171875 C 103.050781 -162.367188 107.132812 -161.347656 110.625 -160.109375 C 114.125 -158.867188 117.378906 -157.550781 120.390625 -156.15625 L 120.390625 -123.609375 L 119.09375 -123.609375 C 119.09375 -123.609375 118.582031 -124.816406 117.5625 -127.234375 C 116.539062 -129.648438 114.984375 -132.65625 112.890625 -136.25 C 110.796875 -139.851562 108.160156 -143.425781 104.984375 -146.96875 C 101.816406 -150.519531 98.054688 -153.503906 93.703125 -155.921875 C 89.359375 -158.335938 84.394531 -159.546875 78.8125 -159.546875 C 73.007812 -159.546875 67.421875 -157.664062 62.046875 -153.90625 C 56.671875 -150.144531 51.859375 -144.769531 47.609375 -137.78125 C 43.367188 -130.800781 40.015625 -122.476562 37.546875 -112.8125 C 35.078125 -103.144531 33.84375 -92.398438 33.84375 -80.578125 C 33.84375 -68.753906 35.078125 -58.007812 37.546875 -48.34375 C 40.015625 -38.675781 43.367188 -30.347656 47.609375 -23.359375 C 51.859375 -16.378906 56.671875 -11.007812 62.046875 -7.25 C 67.421875 -3.488281 73.007812 -1.609375 78.8125 -1.609375 C 84.394531 -1.609375 89.359375 -2.816406 93.703125 -5.234375 C 98.054688 -7.648438 101.816406 -10.65625 104.984375 -14.25 C 108.160156 -17.851562 110.796875 -21.425781 112.890625 -24.96875 C 114.984375 -28.519531 116.539062 -31.503906 117.5625 -33.921875 C 118.582031 -36.335938 119.09375 -37.546875 119.09375 -37.546875 L 120.390625 -37.546875 L 120.390625 -5 C 115.867188 -2.957031 110.65625 -1.078125 104.75 0.640625 C 98.84375 2.359375 91 3.21875 81.21875 3.21875 Z M 81.21875 3.21875 "/></g></g></g><g clip-path="url(#61a7a524b1)"><g transform="matrix(1, 0, 0, 1, 56, 165)"><g clip-path="url(#46b2d0897f)"><g clip-path="url(#7306838e33)"><path fill="#ebe2d5" d="M 0.0507812 0.140625 L 246.53125 0.140625 L 246.53125 50.988281 L 0.0507812 50.988281 Z M 0.0507812 0.140625 " fill-opacity="1" fill-rule="nonzero"/></g></g></g></g><g transform="matrix(1, 0, 0, 1, 111, 146)"><g clip-path="url(#922506873d)"><g fill="#000000" fill-opacity="1"><g transform="translate(10.066375, 54.865293)"><g><path d="M 29.859375 -9.171875 C 29.984375 -9.140625 30.097656 -9.09375 30.203125 -9.03125 C 30.316406 -8.96875 30.390625 -8.859375 30.421875 -8.703125 C 30.441406 -8.546875 30.40625 -8.421875 30.3125 -8.328125 C 30.21875 -8.234375 30.109375 -8.179688 29.984375 -8.171875 C 28.660156 -7.753906 27.351562 -7.234375 26.0625 -6.609375 C 25.582031 -6.367188 25.085938 -6.144531 24.578125 -5.9375 C 24.003906 -5.6875 23.429688 -5.414062 22.859375 -5.125 C 22.460938 -4.9375 22.054688 -4.75 21.640625 -4.5625 C 21.253906 -4.351562 21.046875 -4.035156 21.015625 -3.609375 C 20.859375 -2.179688 20.679688 -0.753906 20.484375 0.671875 C 20.148438 2.765625 19.503906 4.890625 18.546875 7.046875 C 17.597656 9.203125 16.367188 11.1875 14.859375 13 C 13.347656 14.820312 11.601562 16.265625 9.625 17.328125 C 7.644531 18.390625 5.46875 18.863281 3.09375 18.75 C 1.75 18.675781 0.554688 18.242188 -0.484375 17.453125 C -1.859375 16.347656 -2.375 14.925781 -2.03125 13.1875 C -1.695312 11.625 -0.878906 10.046875 0.421875 8.453125 C 1.734375 6.859375 3.285156 5.335938 5.078125 3.890625 C 6.867188 2.441406 8.648438 1.144531 10.421875 0 C 12.191406 -1.15625 13.726562 -2.078125 15.03125 -2.765625 C 16.082031 -3.335938 17.132812 -3.890625 18.1875 -4.421875 C 18.695312 -4.648438 18.953125 -5.039062 18.953125 -5.59375 C 19.015625 -7.070312 19.003906 -8.882812 18.921875 -11.03125 C 18.847656 -13.175781 18.65625 -15.414062 18.34375 -17.75 C 18.039062 -20.082031 17.570312 -22.242188 16.9375 -24.234375 C 16.300781 -26.234375 15.453125 -27.8125 14.390625 -28.96875 C 12.785156 -30.6875 10.867188 -31.253906 8.640625 -30.671875 C 7.066406 -30.191406 5.570312 -29.441406 4.15625 -28.421875 C 2.738281 -27.398438 1.507812 -26.203125 0.46875 -24.828125 C -0.5625 -23.453125 -1.285156 -21.984375 -1.703125 -20.421875 C -2.128906 -18.859375 -2.128906 -17.289062 -1.703125 -15.71875 C -1.273438 -14.144531 -0.304688 -12.664062 1.203125 -11.28125 C 1.847656 -10.65625 2.53125 -10.109375 3.25 -9.640625 C 3.976562 -9.179688 4.796875 -8.878906 5.703125 -8.734375 C 5.804688 -8.722656 5.898438 -8.679688 5.984375 -8.609375 C 6.078125 -8.535156 6.128906 -8.445312 6.140625 -8.34375 C 6.171875 -8.207031 6.140625 -8.085938 6.046875 -7.984375 C 5.960938 -7.890625 5.863281 -7.816406 5.75 -7.765625 C 5.539062 -7.679688 5.332031 -7.628906 5.125 -7.609375 C 4.925781 -7.585938 4.738281 -7.59375 4.5625 -7.625 C 4.539062 -7.625 4.519531 -7.625 4.5 -7.625 C 4.207031 -7.675781 3.921875 -7.757812 3.640625 -7.875 C 1.078125 -9.007812 -0.800781 -10.410156 -2 -12.078125 C -3.207031 -13.753906 -3.847656 -15.546875 -3.921875 -17.453125 C -4.003906 -19.359375 -3.601562 -21.234375 -2.71875 -23.078125 C -1.84375 -24.921875 -0.597656 -26.578125 1.015625 -28.046875 C 2.640625 -29.515625 4.523438 -30.644531 6.671875 -31.4375 C 8.109375 -31.957031 9.578125 -32.1875 11.078125 -32.125 C 13.628906 -32.007812 15.617188 -30.90625 17.046875 -28.8125 C 17.921875 -27.570312 18.640625 -26.015625 19.203125 -24.140625 C 19.773438 -22.273438 20.21875 -20.28125 20.53125 -18.15625 C 20.851562 -16.039062 21.0625 -13.988281 21.15625 -12 C 21.257812 -10.007812 21.273438 -8.28125 21.203125 -6.8125 C 21.171875 -6.488281 21.207031 -6.28125 21.3125 -6.1875 C 21.425781 -6.09375 21.578125 -6.078125 21.765625 -6.140625 C 21.960938 -6.203125 22.160156 -6.285156 22.359375 -6.390625 C 22.503906 -6.484375 22.640625 -6.554688 22.765625 -6.609375 C 24.691406 -7.378906 26.609375 -8.148438 28.515625 -8.921875 C 28.953125 -9.140625 29.398438 -9.222656 29.859375 -9.171875 Z M 18.6875 -2.265625 C 18.726562 -2.859375 18.476562 -3.015625 17.9375 -2.734375 C 16.59375 -2.035156 15.019531 -1.132812 13.21875 -0.03125 C 11.425781 1.070312 9.617188 2.316406 7.796875 3.703125 C 5.972656 5.085938 4.367188 6.546875 2.984375 8.078125 C 1.597656 9.617188 0.644531 11.171875 0.125 12.734375 C -0.207031 13.785156 -0.171875 14.707031 0.234375 15.5 C 0.640625 16.300781 1.367188 16.882812 2.421875 17.25 C 3.984375 17.769531 5.457031 17.8125 6.84375 17.375 C 8.226562 16.9375 9.503906 16.171875 10.671875 15.078125 C 11.847656 13.992188 12.90625 12.695312 13.84375 11.1875 C 14.78125 9.6875 15.585938 8.109375 16.265625 6.453125 C 16.953125 4.804688 17.492188 3.226562 17.890625 1.71875 C 18.296875 0.207031 18.5625 -1.117188 18.6875 -2.265625 Z M 18.6875 -2.265625 "/></g></g></g><g fill="#000000" fill-opacity="1"><g transform="translate(39.758675, 52.069969)"><g><path d="M 2.125 -4.953125 C 2.101562 -4.953125 2.085938 -4.953125 2.078125 -4.953125 C 2.078125 -4.953125 2.082031 -4.953125 2.09375 -4.953125 C 2.09375 -4.953125 2.101562 -4.953125 2.125 -4.953125 Z M 10.4375 -6.953125 C 10.519531 -7.015625 10.648438 -7.09375 10.828125 -7.1875 C 11.015625 -7.28125 11.195312 -7.34375 11.375 -7.375 C 11.550781 -7.40625 11.6875 -7.347656 11.78125 -7.203125 C 11.832031 -7.109375 11.847656 -7.007812 11.828125 -6.90625 C 11.816406 -6.8125 11.78125 -6.726562 11.71875 -6.65625 C 11.320312 -6.132812 10.679688 -5.582031 9.796875 -5 C 8.921875 -4.414062 8 -3.882812 7.03125 -3.40625 C 6.070312 -2.9375 5.273438 -2.613281 4.640625 -2.4375 C 3.890625 -2.226562 3.125 -2.125 2.34375 -2.125 C 1.375 -2.164062 0.625 -2.5 0.09375 -3.125 C -0.4375 -3.75 -0.695312 -4.484375 -0.6875 -5.328125 C -0.632812 -6.265625 -0.28125 -7.039062 0.375 -7.65625 C 1.03125 -8.28125 1.832031 -8.5625 2.78125 -8.5 C 3.34375 -8.488281 3.875 -8.335938 4.375 -8.046875 C 4.90625 -7.679688 5.164062 -7.234375 5.15625 -6.703125 C 5.15625 -6.179688 4.890625 -5.757812 4.359375 -5.4375 C 4.066406 -5.257812 3.738281 -5.132812 3.375 -5.0625 C 3.019531 -5 2.601562 -4.960938 2.125 -4.953125 C 2.125 -4.953125 2.109375 -4.953125 2.078125 -4.953125 C 2.054688 -4.953125 2.019531 -4.945312 1.96875 -4.9375 C 1.914062 -4.9375 1.863281 -4.9375 1.8125 -4.9375 C 1.664062 -4.914062 1.570312 -4.859375 1.53125 -4.765625 C 1.488281 -4.679688 1.492188 -4.585938 1.546875 -4.484375 C 1.878906 -3.835938 2.4375 -3.53125 3.21875 -3.5625 C 4 -3.601562 4.863281 -3.835938 5.8125 -4.265625 C 6.769531 -4.691406 7.664062 -5.160156 8.5 -5.671875 C 9.34375 -6.179688 9.988281 -6.609375 10.4375 -6.953125 Z M 1.90625 -6.921875 C 1.789062 -6.828125 1.71875 -6.71875 1.6875 -6.59375 C 1.65625 -6.46875 1.640625 -6.363281 1.640625 -6.28125 C 1.640625 -6.207031 1.65625 -6.164062 1.6875 -6.15625 C 1.71875 -6.144531 1.816406 -6.128906 1.984375 -6.109375 C 2.160156 -6.097656 2.347656 -6.113281 2.546875 -6.15625 C 2.753906 -6.195312 2.921875 -6.253906 3.046875 -6.328125 C 3.171875 -6.410156 3.207031 -6.539062 3.15625 -6.71875 C 3.039062 -6.957031 2.851562 -7.097656 2.59375 -7.140625 C 2.332031 -7.179688 2.101562 -7.109375 1.90625 -6.921875 Z M 1.90625 -6.921875 "/></g></g></g><g fill="#000000" fill-opacity="1"><g transform="translate(50.884257, 51.022573)"><g><path d="M 10.171875 -6.671875 C 10.441406 -7.015625 10.691406 -7.160156 10.921875 -7.109375 C 11.160156 -7.066406 11.320312 -6.914062 11.40625 -6.65625 C 11.488281 -6.394531 11.4375 -6.082031 11.25 -5.71875 C 10.863281 -5.019531 10.304688 -4.257812 9.578125 -3.4375 C 8.847656 -2.625 8.046875 -1.890625 7.171875 -1.234375 C 6.296875 -0.585938 5.445312 -0.207031 4.625 -0.09375 C 2.945312 0.164062 2.082031 -0.550781 2.03125 -2.25 C 2.03125 -2.488281 2.046875 -2.796875 2.078125 -3.171875 C 2.117188 -3.554688 2.144531 -3.925781 2.15625 -4.28125 C 2.164062 -4.632812 2.125 -4.863281 2.03125 -4.96875 C 1.90625 -5.0625 1.769531 -5.097656 1.625 -5.078125 C 1.488281 -5.066406 1.34375 -5.039062 1.1875 -5 C 1.007812 -4.9375 0.847656 -4.914062 0.703125 -4.9375 C -0.128906 -4.945312 -0.601562 -5.320312 -0.71875 -6.0625 C -0.820312 -7.101562 -0.71875 -8.125 -0.40625 -9.125 C -0.300781 -9.425781 -0.078125 -9.640625 0.265625 -9.765625 C 0.609375 -9.898438 0.929688 -9.894531 1.234375 -9.75 C 1.441406 -9.644531 1.546875 -9.488281 1.546875 -9.28125 C 1.546875 -8.988281 1.523438 -8.703125 1.484375 -8.421875 C 1.460938 -8.285156 1.441406 -8.15625 1.421875 -8.03125 C 1.347656 -7.28125 1.390625 -6.894531 1.546875 -6.875 C 1.703125 -6.863281 2.023438 -7.09375 2.515625 -7.5625 C 2.890625 -7.894531 3.3125 -8.054688 3.78125 -8.046875 C 4.425781 -8.046875 4.71875 -7.71875 4.65625 -7.0625 C 4.59375 -6.601562 4.53125 -6.144531 4.46875 -5.6875 C 4.3125 -4.726562 4.210938 -3.753906 4.171875 -2.765625 C 4.191406 -2.128906 4.347656 -1.769531 4.640625 -1.6875 C 4.929688 -1.601562 5.296875 -1.703125 5.734375 -1.984375 C 6.179688 -2.265625 6.644531 -2.628906 7.125 -3.078125 C 7.601562 -3.535156 8.019531 -3.976562 8.375 -4.40625 C 8.738281 -4.84375 8.984375 -5.15625 9.109375 -5.34375 C 9.171875 -5.4375 9.269531 -5.566406 9.40625 -5.734375 C 9.550781 -5.910156 9.691406 -6.085938 9.828125 -6.265625 C 9.992188 -6.453125 10.109375 -6.585938 10.171875 -6.671875 Z M 10.171875 -6.671875 "/></g></g></g><g fill="#000000" fill-opacity="1"><g transform="translate(61.275358, 50.044323)"><g><path d="M 12.734375 -7.546875 C 13.023438 -7.617188 13.207031 -7.625 13.28125 -7.5625 C 13.363281 -7.5 13.390625 -7.390625 13.359375 -7.234375 C 13.378906 -6.953125 13.289062 -6.695312 13.09375 -6.46875 C 12.90625 -6.238281 12.644531 -6.023438 12.3125 -5.828125 C 11.5625 -5.390625 10.804688 -5.101562 10.046875 -4.96875 C 9.296875 -4.832031 8.503906 -4.828125 7.671875 -4.953125 C 7.285156 -5.015625 6.96875 -4.984375 6.71875 -4.859375 C 6.476562 -4.742188 6.242188 -4.421875 6.015625 -3.890625 C 5.484375 -2.566406 4.507812 -1.753906 3.09375 -1.453125 C 2.03125 -1.253906 1.21875 -1.382812 0.65625 -1.84375 C 0.09375 -2.300781 -0.289062 -2.921875 -0.5 -3.703125 C -0.75 -4.515625 -0.789062 -5.285156 -0.625 -6.015625 C -0.457031 -6.753906 -0.132812 -7.457031 0.34375 -8.125 C 0.707031 -8.601562 1.1875 -8.835938 1.78125 -8.828125 C 2.0625 -8.847656 2.296875 -8.765625 2.484375 -8.578125 C 2.585938 -8.429688 2.613281 -8.300781 2.5625 -8.1875 C 2.507812 -8.082031 2.4375 -7.976562 2.34375 -7.875 C 1.5625 -6.894531 1.257812 -5.789062 1.4375 -4.5625 C 1.507812 -3.976562 1.726562 -3.460938 2.09375 -3.015625 C 2.414062 -2.640625 2.773438 -2.613281 3.171875 -2.9375 C 3.535156 -3.289062 3.847656 -3.765625 4.109375 -4.359375 C 4.367188 -4.953125 4.492188 -5.546875 4.484375 -6.140625 C 4.472656 -6.742188 4.257812 -7.253906 3.84375 -7.671875 C 3.632812 -7.828125 3.4375 -7.9375 3.25 -8 C 3.164062 -8.039062 3.082031 -8.078125 3 -8.109375 C 2.925781 -8.148438 2.882812 -8.207031 2.875 -8.28125 C 2.820312 -8.6875 2.945312 -8.992188 3.25 -9.203125 C 3.550781 -9.410156 3.929688 -9.535156 4.390625 -9.578125 C 4.847656 -9.628906 5.285156 -9.582031 5.703125 -9.4375 C 6.117188 -9.289062 6.40625 -9.046875 6.5625 -8.703125 C 6.726562 -8.253906 6.804688 -7.796875 6.796875 -7.328125 C 6.816406 -6.941406 7.003906 -6.660156 7.359375 -6.484375 C 8.148438 -6.023438 8.992188 -5.921875 9.890625 -6.171875 C 10.253906 -6.273438 10.585938 -6.398438 10.890625 -6.546875 C 11.191406 -6.703125 11.476562 -6.863281 11.75 -7.03125 C 12.09375 -7.25 12.421875 -7.421875 12.734375 -7.546875 Z M 12.734375 -7.546875 "/></g></g></g><g fill="#000000" fill-opacity="1"><g transform="translate(73.966228, 48.849565)"><g><path d="M 17.734375 -7.765625 C 18.003906 -7.742188 18.144531 -7.601562 18.15625 -7.34375 C 18.164062 -7.09375 18.097656 -6.835938 17.953125 -6.578125 C 17.585938 -5.898438 17.097656 -5.285156 16.484375 -4.734375 C 15.867188 -4.179688 15.210938 -3.769531 14.515625 -3.5 C 13.828125 -3.238281 13.164062 -3.210938 12.53125 -3.421875 C 11.90625 -3.628906 11.382812 -4.15625 10.96875 -5 C 10.59375 -5.757812 10.34375 -6.546875 10.21875 -7.359375 C 10.164062 -7.640625 10.082031 -8.34375 9.96875 -9.46875 C 9.851562 -10.59375 9.726562 -11.769531 9.59375 -13 C 9.46875 -14.226562 9.375 -15.15625 9.3125 -15.78125 C 9.28125 -16.0625 9.265625 -16.207031 9.265625 -16.21875 C 8.960938 -14.507812 8.585938 -12.734375 8.140625 -10.890625 C 7.703125 -9.054688 7.375 -7.828125 7.15625 -7.203125 C 6.75 -6.054688 6.28125 -4.914062 5.75 -3.78125 C 5.363281 -3.050781 4.890625 -2.390625 4.328125 -1.796875 C 3.867188 -1.304688 3.296875 -0.984375 2.609375 -0.828125 C 1.929688 -0.679688 1.28125 -0.710938 0.65625 -0.921875 C 0.0390625 -1.128906 -0.394531 -1.539062 -0.65625 -2.15625 C -0.925781 -2.914062 -1.039062 -3.65625 -1 -4.375 C -0.957031 -5.09375 -0.722656 -5.796875 -0.296875 -6.484375 C 0.203125 -7.222656 0.796875 -7.734375 1.484375 -8.015625 C 2.171875 -8.296875 2.953125 -8.375 3.828125 -8.25 C 4.085938 -8.21875 4.351562 -8.15625 4.625 -8.0625 C 4.757812 -8.019531 4.894531 -7.984375 5.03125 -7.953125 C 5.414062 -8.515625 5.785156 -9.601562 6.140625 -11.21875 C 6.503906 -12.832031 6.816406 -14.476562 7.078125 -16.15625 C 7.347656 -17.832031 7.523438 -19.054688 7.609375 -19.828125 C 7.898438 -22.085938 8.109375 -24.328125 8.234375 -26.546875 C 8.335938 -27.972656 8.453125 -29.421875 8.578125 -30.890625 C 8.640625 -31.359375 8.875 -31.679688 9.28125 -31.859375 C 9.695312 -32.035156 10.101562 -32.003906 10.5 -31.765625 C 10.695312 -31.628906 10.800781 -31.460938 10.8125 -31.265625 C 11 -28.679688 11.125 -26.070312 11.1875 -23.4375 C 11.25 -22.375 11.296875 -21.335938 11.328125 -20.328125 C 11.410156 -18.316406 11.523438 -16.3125 11.671875 -14.3125 C 11.816406 -12.3125 12.023438 -10.316406 12.296875 -8.328125 C 12.304688 -8.253906 12.316406 -8.175781 12.328125 -8.09375 C 12.359375 -7.6875 12.4375 -7.207031 12.5625 -6.65625 C 12.6875 -6.113281 12.878906 -5.660156 13.140625 -5.296875 C 13.398438 -4.929688 13.769531 -4.832031 14.25 -5 C 14.613281 -5.15625 14.96875 -5.390625 15.3125 -5.703125 C 15.664062 -6.023438 16.003906 -6.351562 16.328125 -6.6875 C 16.628906 -6.988281 16.894531 -7.242188 17.125 -7.453125 C 17.363281 -7.671875 17.566406 -7.773438 17.734375 -7.765625 Z M 2.84375 -2.90625 C 3.238281 -3.445312 3.578125 -4.015625 3.859375 -4.609375 C 4.140625 -5.203125 4.398438 -5.851562 4.640625 -6.5625 C 4.222656 -6.71875 3.816406 -6.832031 3.421875 -6.90625 C 3.035156 -6.976562 2.671875 -6.925781 2.328125 -6.75 C 1.984375 -6.582031 1.679688 -6.21875 1.421875 -5.65625 C 0.929688 -4.5625 0.953125 -3.460938 1.484375 -2.359375 C 1.597656 -2.117188 1.742188 -2.019531 1.921875 -2.0625 C 2.097656 -2.113281 2.269531 -2.234375 2.4375 -2.421875 C 2.613281 -2.609375 2.75 -2.769531 2.84375 -2.90625 Z M 2.84375 -2.90625 "/></g></g></g><g fill="#000000" fill-opacity="1"><g transform="translate(91.292756, 47.218393)"><g/></g></g><g fill="#000000" fill-opacity="1"><g transform="translate(100.816929, 46.321758)"><g><path d="M 33.046875 -8.40625 C 32.890625 -8.132812 32.707031 -7.867188 32.5 -7.609375 C 32.382812 -7.460938 32.257812 -7.3125 32.125 -7.15625 C 30.257812 -4.570312 28.269531 -2.085938 26.15625 0.296875 C 24.25 2.472656 22.171875 4.46875 19.921875 6.28125 C 18.710938 7.195312 17.445312 7.992188 16.125 8.671875 C 14.8125 9.359375 13.425781 9.894531 11.96875 10.28125 C 10.507812 10.675781 9.035156 10.863281 7.546875 10.84375 C 5.316406 10.75 3.554688 10.171875 2.265625 9.109375 C 0.972656 8.046875 0.046875 6.664062 -0.515625 4.96875 C -1.085938 3.28125 -1.382812 1.457031 -1.40625 -0.5 C -1.4375 -2.46875 -1.289062 -4.394531 -0.96875 -6.28125 C -0.644531 -8.164062 -0.234375 -9.835938 0.265625 -11.296875 C 1.234375 -14.273438 2.457031 -17.117188 3.9375 -19.828125 C 5.414062 -22.546875 7.15625 -25.125 9.15625 -27.5625 C 9.445312 -27.914062 9.5625 -28.132812 9.5 -28.21875 C 9.4375 -28.3125 9.253906 -28.378906 8.953125 -28.421875 C 8.804688 -28.429688 8.648438 -28.457031 8.484375 -28.5 C 7.722656 -28.65625 6.972656 -28.828125 6.234375 -29.015625 C 5.003906 -29.304688 3.773438 -29.570312 2.546875 -29.8125 C 1.316406 -30.0625 0.0859375 -30.234375 -1.140625 -30.328125 C -2.242188 -30.421875 -3.332031 -30.375 -4.40625 -30.1875 C -5.164062 -30.082031 -5.863281 -29.800781 -6.5 -29.34375 C -6.925781 -29.03125 -7.28125 -28.671875 -7.5625 -28.265625 C -7.851562 -27.867188 -7.992188 -27.367188 -7.984375 -26.765625 C -7.992188 -26.222656 -8.363281 -25.976562 -9.09375 -26.03125 C -9.550781 -26.050781 -9.804688 -26.3125 -9.859375 -26.8125 C -9.890625 -27.164062 -9.847656 -27.5 -9.734375 -27.8125 C -9.617188 -28.125 -9.457031 -28.425781 -9.25 -28.71875 C -8.507812 -29.789062 -7.492188 -30.523438 -6.203125 -30.921875 C -4.628906 -31.429688 -3.003906 -31.65625 -1.328125 -31.59375 C -0.117188 -31.53125 1.078125 -31.390625 2.265625 -31.171875 C 3.453125 -30.960938 4.632812 -30.726562 5.8125 -30.46875 C 5.925781 -30.445312 6.023438 -30.4375 6.109375 -30.4375 C 6.472656 -30.332031 6.835938 -30.242188 7.203125 -30.171875 C 8.109375 -30.003906 9 -29.804688 9.875 -29.578125 C 10.21875 -29.484375 10.519531 -29.476562 10.78125 -29.5625 C 11.039062 -29.644531 11.296875 -29.804688 11.546875 -30.046875 C 12.546875 -31.023438 13.644531 -31.875 14.84375 -32.59375 C 16.363281 -33.570312 18.03125 -34.210938 19.84375 -34.515625 C 20.394531 -34.617188 20.953125 -34.65625 21.515625 -34.625 C 22.085938 -34.59375 22.640625 -34.484375 23.171875 -34.296875 C 24.035156 -33.941406 24.566406 -33.414062 24.765625 -32.71875 C 24.972656 -32.019531 24.796875 -31.296875 24.234375 -30.546875 C 23.734375 -29.890625 23.097656 -29.382812 22.328125 -29.03125 C 21.410156 -28.550781 20.441406 -28.234375 19.421875 -28.078125 C 18.398438 -27.898438 17.378906 -27.773438 16.359375 -27.703125 C 15.335938 -27.628906 14.316406 -27.648438 13.296875 -27.765625 C 13.222656 -27.765625 13.144531 -27.773438 13.0625 -27.796875 C 12.695312 -27.835938 12.359375 -27.84375 12.046875 -27.8125 C 11.742188 -27.78125 11.453125 -27.59375 11.171875 -27.25 C 8.765625 -24.394531 6.722656 -21.253906 5.046875 -17.828125 C 3.367188 -14.398438 2.09375 -10.867188 1.21875 -7.234375 C 0.914062 -5.960938 0.703125 -4.554688 0.578125 -3.015625 C 0.460938 -1.484375 0.507812 0.0351562 0.71875 1.546875 C 0.9375 3.054688 1.394531 4.441406 2.09375 5.703125 C 2.789062 6.960938 3.800781 7.972656 5.125 8.734375 C 6.226562 9.347656 7.410156 9.625 8.671875 9.5625 C 10.546875 9.425781 12.328125 8.957031 14.015625 8.15625 C 15.828125 7.28125 17.507812 6.1875 19.0625 4.875 C 20.40625 3.75 21.675781 2.554688 22.875 1.296875 C 24.070312 0.0351562 25.253906 -1.265625 26.421875 -2.609375 C 26.847656 -3.097656 27.582031 -3.925781 28.625 -5.09375 C 29.664062 -6.257812 30.625 -7.296875 31.5 -8.203125 C 31.644531 -8.347656 31.785156 -8.5 31.921875 -8.65625 C 32.191406 -8.945312 32.429688 -9.179688 32.640625 -9.359375 C 32.847656 -9.535156 33.0625 -9.617188 33.28125 -9.609375 C 33.695312 -9.609375 33.617188 -9.207031 33.046875 -8.40625 Z M 19.875 -33.265625 C 18.5625 -32.953125 17.351562 -32.441406 16.25 -31.734375 C 15.144531 -31.023438 14.078125 -30.175781 13.046875 -29.1875 C 14.054688 -28.945312 15.113281 -28.832031 16.21875 -28.84375 C 17.332031 -28.863281 18.335938 -28.984375 19.234375 -29.203125 C 20.035156 -29.410156 20.789062 -29.734375 21.5 -30.171875 C 21.957031 -30.453125 22.328125 -30.8125 22.609375 -31.25 C 22.828125 -31.6875 22.875 -32.082031 22.75 -32.4375 C 22.625 -32.789062 22.328125 -33.039062 21.859375 -33.1875 C 21.203125 -33.394531 20.539062 -33.421875 19.875 -33.265625 Z M 19.875 -33.265625 "/></g></g></g><g fill="#000000" fill-opacity="1"><g transform="translate(133.784292, 43.218109)"><g><path d="M 12.734375 -7.546875 C 13.023438 -7.617188 13.207031 -7.625 13.28125 -7.5625 C 13.363281 -7.5 13.390625 -7.390625 13.359375 -7.234375 C 13.378906 -6.953125 13.289062 -6.695312 13.09375 -6.46875 C 12.90625 -6.238281 12.644531 -6.023438 12.3125 -5.828125 C 11.5625 -5.390625 10.804688 -5.101562 10.046875 -4.96875 C 9.296875 -4.832031 8.503906 -4.828125 7.671875 -4.953125 C 7.285156 -5.015625 6.96875 -4.984375 6.71875 -4.859375 C 6.476562 -4.742188 6.242188 -4.421875 6.015625 -3.890625 C 5.484375 -2.566406 4.507812 -1.753906 3.09375 -1.453125 C 2.03125 -1.253906 1.21875 -1.382812 0.65625 -1.84375 C 0.09375 -2.300781 -0.289062 -2.921875 -0.5 -3.703125 C -0.75 -4.515625 -0.789062 -5.285156 -0.625 -6.015625 C -0.457031 -6.753906 -0.132812 -7.457031 0.34375 -8.125 C 0.707031 -8.601562 1.1875 -8.835938 1.78125 -8.828125 C 2.0625 -8.847656 2.296875 -8.765625 2.484375 -8.578125 C 2.585938 -8.429688 2.613281 -8.300781 2.5625 -8.1875 C 2.507812 -8.082031 2.4375 -7.976562 2.34375 -7.875 C 1.5625 -6.894531 1.257812 -5.789062 1.4375 -4.5625 C 1.507812 -3.976562 1.726562 -3.460938 2.09375 -3.015625 C 2.414062 -2.640625 2.773438 -2.613281 3.171875 -2.9375 C 3.535156 -3.289062 3.847656 -3.765625 4.109375 -4.359375 C 4.367188 -4.953125 4.492188 -5.546875 4.484375 -6.140625 C 4.472656 -6.742188 4.257812 -7.253906 3.84375 -7.671875 C 3.632812 -7.828125 3.4375 -7.9375 3.25 -8 C 3.164062 -8.039062 3.082031 -8.078125 3 -8.109375 C 2.925781 -8.148438 2.882812 -8.207031 2.875 -8.28125 C 2.820312 -8.6875 2.945312 -8.992188 3.25 -9.203125 C 3.550781 -9.410156 3.929688 -9.535156 4.390625 -9.578125 C 4.847656 -9.628906 5.285156 -9.582031 5.703125 -9.4375 C 6.117188 -9.289062 6.40625 -9.046875 6.5625 -8.703125 C 6.726562 -8.253906 6.804688 -7.796875 6.796875 -7.328125 C 6.816406 -6.941406 7.003906 -6.660156 7.359375 -6.484375 C 8.148438 -6.023438 8.992188 -5.921875 9.890625 -6.171875 C 10.253906 -6.273438 10.585938 -6.398438 10.890625 -6.546875 C 11.191406 -6.703125 11.476562 -6.863281 11.75 -7.03125 C 12.09375 -7.25 12.421875 -7.421875 12.734375 -7.546875 Z M 12.734375 -7.546875 "/></g></g></g><g fill="#000000" fill-opacity="1"><g transform="translate(146.475161, 42.023352)"><g><path d="M 9.359375 -6.9375 C 9.703125 -7.144531 9.910156 -7.1875 9.984375 -7.0625 C 10.066406 -6.9375 10.066406 -6.738281 9.984375 -6.46875 C 9.910156 -6.195312 9.820312 -5.953125 9.71875 -5.734375 C 9.269531 -4.828125 8.757812 -4.054688 8.1875 -3.421875 C 7.613281 -2.796875 6.816406 -2.378906 5.796875 -2.171875 C 4.691406 -1.941406 3.679688 -2.171875 2.765625 -2.859375 C 2.617188 -2.992188 2.46875 -3.144531 2.3125 -3.3125 C 2.132812 -3.488281 1.9375 -3.65625 1.71875 -3.8125 C 1.664062 -3.863281 1.59375 -3.828125 1.5 -3.703125 C 1.414062 -3.578125 1.328125 -3.425781 1.234375 -3.25 C 1.171875 -3.144531 1.113281 -3.0625 1.0625 -3 C 0.894531 -2.75 0.695312 -2.582031 0.46875 -2.5 C 0.238281 -2.425781 -0.0078125 -2.410156 -0.28125 -2.453125 C -0.53125 -2.453125 -0.710938 -2.53125 -0.828125 -2.6875 C -0.941406 -2.851562 -0.9375 -3.050781 -0.8125 -3.28125 C -0.632812 -3.632812 -0.421875 -3.976562 -0.171875 -4.3125 C 0.109375 -4.664062 0.296875 -4.925781 0.390625 -5.09375 C 0.492188 -5.269531 0.519531 -5.425781 0.46875 -5.5625 C 0.425781 -5.695312 0.320312 -5.875 0.15625 -6.09375 C 0.0703125 -6.207031 -0.03125 -6.359375 -0.15625 -6.546875 C -0.40625 -6.929688 -0.644531 -7.328125 -0.875 -7.734375 C -0.976562 -7.953125 -0.984375 -8.144531 -0.890625 -8.3125 C -0.796875 -8.488281 -0.632812 -8.601562 -0.40625 -8.65625 C -0.125 -8.75 0.128906 -8.765625 0.359375 -8.703125 C 0.585938 -8.640625 0.78125 -8.484375 0.9375 -8.234375 C 1.101562 -7.984375 1.285156 -7.726562 1.484375 -7.46875 C 1.691406 -7.226562 1.898438 -7.210938 2.109375 -7.421875 C 2.265625 -7.617188 2.4375 -7.816406 2.625 -8.015625 C 2.8125 -8.265625 3.015625 -8.503906 3.234375 -8.734375 C 3.390625 -8.929688 3.570312 -9.097656 3.78125 -9.234375 C 4.0625 -9.367188 4.359375 -9.40625 4.671875 -9.34375 C 4.867188 -9.320312 5.003906 -9.226562 5.078125 -9.0625 C 5.160156 -8.90625 5.160156 -8.734375 5.078125 -8.546875 C 4.835938 -8.179688 4.585938 -7.816406 4.328125 -7.453125 C 4.296875 -7.390625 4.257812 -7.332031 4.21875 -7.28125 C 4.0625 -7.09375 3.914062 -6.898438 3.78125 -6.703125 C 3.738281 -6.640625 3.695312 -6.582031 3.65625 -6.53125 C 3.601562 -6.457031 3.550781 -6.378906 3.5 -6.296875 C 3.257812 -6.003906 3.101562 -5.773438 3.03125 -5.609375 C 2.957031 -5.441406 2.976562 -5.273438 3.09375 -5.109375 C 3.21875 -4.941406 3.441406 -4.695312 3.765625 -4.375 C 3.796875 -4.34375 3.832031 -4.300781 3.875 -4.25 C 4.476562 -3.644531 5.054688 -3.390625 5.609375 -3.484375 C 6.171875 -3.585938 6.695312 -3.882812 7.1875 -4.375 C 7.6875 -4.875 8.140625 -5.410156 8.546875 -5.984375 C 8.578125 -6.023438 8.617188 -6.070312 8.671875 -6.125 C 8.867188 -6.4375 9.097656 -6.707031 9.359375 -6.9375 Z M 9.359375 -6.9375 "/></g></g></g></g></g><g fill="#000000" fill-opacity="1"><g transform="translate(135.592752, 290.203692)"><g><path d="M 1.375 0 C 1.207031 0 1.070312 -0.046875 0.96875 -0.140625 C 0.875 -0.242188 0.828125 -0.367188 0.828125 -0.515625 L 0.828125 -6.625 C 0.828125 -6.769531 0.875 -6.890625 0.96875 -6.984375 C 1.070312 -7.085938 1.195312 -7.140625 1.34375 -7.140625 L 4.796875 -7.140625 C 4.941406 -7.140625 5.0625 -7.09375 5.15625 -7 C 5.257812 -6.90625 5.3125 -6.785156 5.3125 -6.640625 C 5.3125 -6.515625 5.257812 -6.398438 5.15625 -6.296875 C 5.0625 -6.203125 4.941406 -6.15625 4.796875 -6.15625 L 1.8125 -6.15625 L 1.890625 -6.265625 L 1.890625 -3.984375 L 1.828125 -4.109375 L 4.34375 -4.109375 C 4.488281 -4.109375 4.609375 -4.0625 4.703125 -3.96875 C 4.804688 -3.875 4.859375 -3.753906 4.859375 -3.609375 C 4.859375 -3.484375 4.804688 -3.367188 4.703125 -3.265625 C 4.609375 -3.171875 4.488281 -3.125 4.34375 -3.125 L 1.8125 -3.125 L 1.890625 -3.21875 L 1.890625 -0.515625 C 1.890625 -0.367188 1.835938 -0.242188 1.734375 -0.140625 C 1.628906 -0.046875 1.507812 0 1.375 0 Z M 1.375 0 "/></g></g></g><g fill="#000000" fill-opacity="1"><g transform="translate(142.067155, 290.203692)"><g><path d="M 1.21875 0 C 1.070312 0 0.953125 -0.046875 0.859375 -0.140625 C 0.765625 -0.242188 0.71875 -0.367188 0.71875 -0.515625 L 0.71875 -4.84375 C 0.71875 -5 0.765625 -5.125 0.859375 -5.21875 C 0.953125 -5.3125 1.070312 -5.359375 1.21875 -5.359375 C 1.363281 -5.359375 1.484375 -5.3125 1.578125 -5.21875 C 1.679688 -5.125 1.734375 -5 1.734375 -4.84375 L 1.734375 -3.703125 L 1.625 -4.140625 C 1.6875 -4.328125 1.769531 -4.503906 1.875 -4.671875 C 1.988281 -4.835938 2.125 -4.976562 2.28125 -5.09375 C 2.4375 -5.21875 2.613281 -5.3125 2.8125 -5.375 C 3.007812 -5.445312 3.210938 -5.484375 3.421875 -5.484375 C 3.597656 -5.484375 3.75 -5.4375 3.875 -5.34375 C 4.007812 -5.25 4.078125 -5.128906 4.078125 -4.984375 C 4.078125 -4.804688 4.023438 -4.671875 3.921875 -4.578125 C 3.828125 -4.492188 3.722656 -4.453125 3.609375 -4.453125 C 3.503906 -4.453125 3.40625 -4.472656 3.3125 -4.515625 C 3.21875 -4.566406 3.109375 -4.59375 2.984375 -4.59375 C 2.835938 -4.59375 2.6875 -4.550781 2.53125 -4.46875 C 2.382812 -4.394531 2.25 -4.285156 2.125 -4.140625 C 2.007812 -3.992188 1.914062 -3.820312 1.84375 -3.625 C 1.769531 -3.4375 1.734375 -3.21875 1.734375 -2.96875 L 1.734375 -0.515625 C 1.734375 -0.367188 1.679688 -0.242188 1.578125 -0.140625 C 1.484375 -0.046875 1.363281 0 1.21875 0 Z M 1.21875 0 "/></g></g></g><g fill="#000000" fill-opacity="1"><g transform="translate(147.063244, 290.203692)"><g><path d="M 5.859375 -2.6875 C 5.859375 -2.132812 5.738281 -1.648438 5.5 -1.234375 C 5.257812 -0.816406 4.9375 -0.488281 4.53125 -0.25 C 4.125 -0.0078125 3.664062 0.109375 3.15625 0.109375 C 2.644531 0.109375 2.179688 -0.0078125 1.765625 -0.25 C 1.359375 -0.488281 1.035156 -0.816406 0.796875 -1.234375 C 0.554688 -1.648438 0.4375 -2.132812 0.4375 -2.6875 C 0.4375 -3.238281 0.554688 -3.722656 0.796875 -4.140625 C 1.035156 -4.554688 1.359375 -4.882812 1.765625 -5.125 C 2.179688 -5.363281 2.644531 -5.484375 3.15625 -5.484375 C 3.664062 -5.484375 4.125 -5.363281 4.53125 -5.125 C 4.9375 -4.882812 5.257812 -4.554688 5.5 -4.140625 C 5.738281 -3.722656 5.859375 -3.238281 5.859375 -2.6875 Z M 4.84375 -2.6875 C 4.84375 -3.0625 4.765625 -3.382812 4.609375 -3.65625 C 4.460938 -3.9375 4.257812 -4.15625 4 -4.3125 C 3.75 -4.46875 3.46875 -4.546875 3.15625 -4.546875 C 2.84375 -4.546875 2.554688 -4.46875 2.296875 -4.3125 C 2.035156 -4.15625 1.828125 -3.9375 1.671875 -3.65625 C 1.523438 -3.382812 1.453125 -3.0625 1.453125 -2.6875 C 1.453125 -2.320312 1.523438 -2 1.671875 -1.71875 C 1.828125 -1.445312 2.035156 -1.234375 2.296875 -1.078125 C 2.554688 -0.921875 2.84375 -0.84375 3.15625 -0.84375 C 3.46875 -0.84375 3.75 -0.921875 4 -1.078125 C 4.257812 -1.234375 4.460938 -1.445312 4.609375 -1.71875 C 4.765625 -2 4.84375 -2.320312 4.84375 -2.6875 Z M 4.84375 -2.6875 "/></g></g></g><g fill="#000000" fill-opacity="1"><g transform="translate(154.088188, 290.203692)"><g><path d="M 3.484375 -5.484375 C 3.960938 -5.484375 4.332031 -5.382812 4.59375 -5.1875 C 4.863281 -4.988281 5.050781 -4.71875 5.15625 -4.375 C 5.257812 -4.039062 5.3125 -3.664062 5.3125 -3.25 L 5.3125 -0.515625 C 5.3125 -0.367188 5.257812 -0.242188 5.15625 -0.140625 C 5.0625 -0.046875 4.945312 0 4.8125 0 C 4.65625 0 4.53125 -0.046875 4.4375 -0.140625 C 4.34375 -0.242188 4.296875 -0.367188 4.296875 -0.515625 L 4.296875 -3.25 C 4.296875 -3.488281 4.257812 -3.703125 4.1875 -3.890625 C 4.125 -4.085938 4.007812 -4.242188 3.84375 -4.359375 C 3.675781 -4.484375 3.441406 -4.546875 3.140625 -4.546875 C 2.859375 -4.546875 2.613281 -4.484375 2.40625 -4.359375 C 2.195312 -4.242188 2.03125 -4.085938 1.90625 -3.890625 C 1.789062 -3.703125 1.734375 -3.488281 1.734375 -3.25 L 1.734375 -0.515625 C 1.734375 -0.367188 1.679688 -0.242188 1.578125 -0.140625 C 1.484375 -0.046875 1.363281 0 1.21875 0 C 1.070312 0 0.953125 -0.046875 0.859375 -0.140625 C 0.765625 -0.242188 0.71875 -0.367188 0.71875 -0.515625 L 0.71875 -4.84375 C 0.71875 -5 0.765625 -5.125 0.859375 -5.21875 C 0.953125 -5.3125 1.070312 -5.359375 1.21875 -5.359375 C 1.363281 -5.359375 1.484375 -5.3125 1.578125 -5.21875 C 1.679688 -5.125 1.734375 -5 1.734375 -4.84375 L 1.734375 -4.28125 L 1.546875 -4.171875 C 1.597656 -4.316406 1.679688 -4.46875 1.796875 -4.625 C 1.921875 -4.78125 2.066406 -4.921875 2.234375 -5.046875 C 2.398438 -5.179688 2.585938 -5.285156 2.796875 -5.359375 C 3.015625 -5.441406 3.242188 -5.484375 3.484375 -5.484375 Z M 3.484375 -5.484375 "/></g></g></g><g fill="#000000" fill-opacity="1"><g transform="translate(160.837856, 290.203692)"><g><path d="M 0.640625 -5.3125 L 3.046875 -5.3125 C 3.179688 -5.3125 3.289062 -5.265625 3.375 -5.171875 C 3.46875 -5.078125 3.515625 -4.960938 3.515625 -4.828125 C 3.515625 -4.691406 3.46875 -4.578125 3.375 -4.484375 C 3.289062 -4.398438 3.179688 -4.359375 3.046875 -4.359375 L 0.640625 -4.359375 C 0.503906 -4.359375 0.390625 -4.40625 0.296875 -4.5 C 0.203125 -4.59375 0.15625 -4.707031 0.15625 -4.84375 C 0.15625 -4.976562 0.203125 -5.085938 0.296875 -5.171875 C 0.390625 -5.265625 0.503906 -5.3125 0.640625 -5.3125 Z M 1.71875 -6.625 C 1.863281 -6.625 1.984375 -6.578125 2.078125 -6.484375 C 2.171875 -6.390625 2.21875 -6.265625 2.21875 -6.109375 L 2.21875 -1.375 C 2.21875 -1.25 2.238281 -1.148438 2.28125 -1.078125 C 2.320312 -1.003906 2.378906 -0.953125 2.453125 -0.921875 C 2.523438 -0.898438 2.597656 -0.890625 2.671875 -0.890625 C 2.742188 -0.890625 2.804688 -0.898438 2.859375 -0.921875 C 2.921875 -0.953125 2.992188 -0.96875 3.078125 -0.96875 C 3.160156 -0.96875 3.234375 -0.929688 3.296875 -0.859375 C 3.367188 -0.785156 3.40625 -0.679688 3.40625 -0.546875 C 3.40625 -0.390625 3.316406 -0.257812 3.140625 -0.15625 C 2.960938 -0.0507812 2.773438 0 2.578125 0 C 2.453125 0 2.3125 -0.0078125 2.15625 -0.03125 C 2 -0.0507812 1.847656 -0.101562 1.703125 -0.1875 C 1.554688 -0.269531 1.4375 -0.398438 1.34375 -0.578125 C 1.25 -0.753906 1.203125 -1.007812 1.203125 -1.34375 L 1.203125 -6.109375 C 1.203125 -6.265625 1.25 -6.390625 1.34375 -6.484375 C 1.445312 -6.578125 1.570312 -6.625 1.71875 -6.625 Z M 1.71875 -6.625 "/></g></g></g><g fill="#000000" fill-opacity="1"><g transform="translate(165.507697, 290.203692)"><g><path d="M 3.21875 0.109375 C 2.644531 0.109375 2.148438 -0.0078125 1.734375 -0.25 C 1.328125 -0.488281 1.007812 -0.8125 0.78125 -1.21875 C 0.550781 -1.632812 0.4375 -2.101562 0.4375 -2.625 C 0.4375 -3.226562 0.554688 -3.742188 0.796875 -4.171875 C 1.035156 -4.597656 1.347656 -4.921875 1.734375 -5.140625 C 2.128906 -5.367188 2.546875 -5.484375 2.984375 -5.484375 C 3.316406 -5.484375 3.628906 -5.414062 3.921875 -5.28125 C 4.222656 -5.15625 4.488281 -4.972656 4.71875 -4.734375 C 4.957031 -4.503906 5.144531 -4.226562 5.28125 -3.90625 C 5.414062 -3.59375 5.488281 -3.25 5.5 -2.875 C 5.488281 -2.738281 5.429688 -2.625 5.328125 -2.53125 C 5.234375 -2.445312 5.117188 -2.40625 4.984375 -2.40625 L 1.015625 -2.40625 L 0.765625 -3.28125 L 4.609375 -3.28125 L 4.40625 -3.09375 L 4.40625 -3.34375 C 4.394531 -3.582031 4.316406 -3.789062 4.171875 -3.96875 C 4.023438 -4.15625 3.847656 -4.296875 3.640625 -4.390625 C 3.429688 -4.492188 3.210938 -4.546875 2.984375 -4.546875 C 2.773438 -4.546875 2.578125 -4.507812 2.390625 -4.4375 C 2.203125 -4.375 2.035156 -4.269531 1.890625 -4.125 C 1.742188 -3.988281 1.628906 -3.800781 1.546875 -3.5625 C 1.460938 -3.332031 1.421875 -3.039062 1.421875 -2.6875 C 1.421875 -2.3125 1.5 -1.984375 1.65625 -1.703125 C 1.8125 -1.429688 2.019531 -1.21875 2.28125 -1.0625 C 2.550781 -0.914062 2.84375 -0.84375 3.15625 -0.84375 C 3.414062 -0.84375 3.625 -0.863281 3.78125 -0.90625 C 3.945312 -0.957031 4.082031 -1.019531 4.1875 -1.09375 C 4.300781 -1.175781 4.398438 -1.25 4.484375 -1.3125 C 4.578125 -1.375 4.675781 -1.40625 4.78125 -1.40625 C 4.90625 -1.40625 5.007812 -1.363281 5.09375 -1.28125 C 5.175781 -1.195312 5.21875 -1.097656 5.21875 -0.984375 C 5.21875 -0.828125 5.140625 -0.691406 4.984375 -0.578125 C 4.804688 -0.398438 4.554688 -0.238281 4.234375 -0.09375 C 3.910156 0.0390625 3.570312 0.109375 3.21875 0.109375 Z M 3.21875 0.109375 "/></g></g></g><g fill="#000000" fill-opacity="1"><g transform="translate(172.175803, 290.203692)"><g><path d="M 3.484375 -5.484375 C 3.960938 -5.484375 4.332031 -5.382812 4.59375 -5.1875 C 4.863281 -4.988281 5.050781 -4.71875 5.15625 -4.375 C 5.257812 -4.039062 5.3125 -3.664062 5.3125 -3.25 L 5.3125 -0.515625 C 5.3125 -0.367188 5.257812 -0.242188 5.15625 -0.140625 C 5.0625 -0.046875 4.945312 0 4.8125 0 C 4.65625 0 4.53125 -0.046875 4.4375 -0.140625 C 4.34375 -0.242188 4.296875 -0.367188 4.296875 -0.515625 L 4.296875 -3.25 C 4.296875 -3.488281 4.257812 -3.703125 4.1875 -3.890625 C 4.125 -4.085938 4.007812 -4.242188 3.84375 -4.359375 C 3.675781 -4.484375 3.441406 -4.546875 3.140625 -4.546875 C 2.859375 -4.546875 2.613281 -4.484375 2.40625 -4.359375 C 2.195312 -4.242188 2.03125 -4.085938 1.90625 -3.890625 C 1.789062 -3.703125 1.734375 -3.488281 1.734375 -3.25 L 1.734375 -0.515625 C 1.734375 -0.367188 1.679688 -0.242188 1.578125 -0.140625 C 1.484375 -0.046875 1.363281 0 1.21875 0 C 1.070312 0 0.953125 -0.046875 0.859375 -0.140625 C 0.765625 -0.242188 0.71875 -0.367188 0.71875 -0.515625 L 0.71875 -4.84375 C 0.71875 -5 0.765625 -5.125 0.859375 -5.21875 C 0.953125 -5.3125 1.070312 -5.359375 1.21875 -5.359375 C 1.363281 -5.359375 1.484375 -5.3125 1.578125 -5.21875 C 1.679688 -5.125 1.734375 -5 1.734375 -4.84375 L 1.734375 -4.28125 L 1.546875 -4.171875 C 1.597656 -4.316406 1.679688 -4.46875 1.796875 -4.625 C 1.921875 -4.78125 2.066406 -4.921875 2.234375 -5.046875 C 2.398438 -5.179688 2.585938 -5.285156 2.796875 -5.359375 C 3.015625 -5.441406 3.242188 -5.484375 3.484375 -5.484375 Z M 3.484375 -5.484375 "/></g></g></g><g fill="#000000" fill-opacity="1"><g transform="translate(178.925471, 290.203692)"><g><path d="M 5.109375 -7.546875 C 5.265625 -7.546875 5.390625 -7.5 5.484375 -7.40625 C 5.578125 -7.3125 5.625 -7.1875 5.625 -7.03125 L 5.625 -0.515625 C 5.625 -0.367188 5.578125 -0.242188 5.484375 -0.140625 C 5.390625 -0.046875 5.265625 0 5.109375 0 C 4.960938 0 4.84375 -0.046875 4.75 -0.140625 C 4.65625 -0.242188 4.609375 -0.367188 4.609375 -0.515625 L 4.609375 -1.25 L 4.8125 -1.25 C 4.8125 -1.125 4.757812 -0.984375 4.65625 -0.828125 C 4.5625 -0.679688 4.429688 -0.535156 4.265625 -0.390625 C 4.097656 -0.242188 3.894531 -0.125 3.65625 -0.03125 C 3.425781 0.0625 3.179688 0.109375 2.921875 0.109375 C 2.453125 0.109375 2.03125 -0.0078125 1.65625 -0.25 C 1.28125 -0.5 0.984375 -0.832031 0.765625 -1.25 C 0.546875 -1.664062 0.4375 -2.144531 0.4375 -2.6875 C 0.4375 -3.238281 0.546875 -3.722656 0.765625 -4.140625 C 0.984375 -4.554688 1.273438 -4.882812 1.640625 -5.125 C 2.015625 -5.363281 2.429688 -5.484375 2.890625 -5.484375 C 3.171875 -5.484375 3.4375 -5.4375 3.6875 -5.34375 C 3.9375 -5.25 4.148438 -5.125 4.328125 -4.96875 C 4.515625 -4.820312 4.660156 -4.664062 4.765625 -4.5 C 4.867188 -4.332031 4.921875 -4.175781 4.921875 -4.03125 L 4.609375 -4 L 4.609375 -7.03125 C 4.609375 -7.175781 4.65625 -7.296875 4.75 -7.390625 C 4.84375 -7.492188 4.960938 -7.546875 5.109375 -7.546875 Z M 3.03125 -0.84375 C 3.351562 -0.84375 3.632812 -0.921875 3.875 -1.078125 C 4.125 -1.242188 4.316406 -1.460938 4.453125 -1.734375 C 4.585938 -2.015625 4.65625 -2.332031 4.65625 -2.6875 C 4.65625 -3.039062 4.585938 -3.359375 4.453125 -3.640625 C 4.316406 -3.921875 4.125 -4.140625 3.875 -4.296875 C 3.632812 -4.460938 3.351562 -4.546875 3.03125 -4.546875 C 2.71875 -4.546875 2.441406 -4.460938 2.203125 -4.296875 C 1.960938 -4.140625 1.769531 -3.921875 1.625 -3.640625 C 1.488281 -3.359375 1.421875 -3.039062 1.421875 -2.6875 C 1.421875 -2.332031 1.488281 -2.015625 1.625 -1.734375 C 1.769531 -1.460938 1.960938 -1.242188 2.203125 -1.078125 C 2.441406 -0.921875 2.71875 -0.84375 3.03125 -0.84375 Z M 3.03125 -0.84375 "/></g></g></g><g fill="#000000" fill-opacity="1"><g transform="translate(185.99119, 290.203692)"><g/></g></g><g fill="#000000" fill-opacity="1"><g transform="translate(189.559938, 290.203692)"><g><path d="M 3.015625 0.109375 C 2.523438 0.109375 2.085938 0.0390625 1.703125 -0.09375 C 1.328125 -0.238281 0.96875 -0.46875 0.625 -0.78125 C 0.550781 -0.832031 0.492188 -0.894531 0.453125 -0.96875 C 0.410156 -1.050781 0.390625 -1.132812 0.390625 -1.21875 C 0.390625 -1.34375 0.4375 -1.457031 0.53125 -1.5625 C 0.632812 -1.664062 0.753906 -1.71875 0.890625 -1.71875 C 1.003906 -1.71875 1.109375 -1.679688 1.203125 -1.609375 C 1.460938 -1.367188 1.734375 -1.1875 2.015625 -1.0625 C 2.296875 -0.9375 2.628906 -0.875 3.015625 -0.875 C 3.285156 -0.875 3.535156 -0.914062 3.765625 -1 C 3.992188 -1.09375 4.175781 -1.210938 4.3125 -1.359375 C 4.445312 -1.515625 4.515625 -1.691406 4.515625 -1.890625 C 4.515625 -2.128906 4.441406 -2.328125 4.296875 -2.484375 C 4.160156 -2.648438 3.960938 -2.785156 3.703125 -2.890625 C 3.441406 -2.992188 3.125 -3.082031 2.75 -3.15625 C 2.414062 -3.21875 2.113281 -3.300781 1.84375 -3.40625 C 1.570312 -3.519531 1.34375 -3.660156 1.15625 -3.828125 C 0.96875 -3.992188 0.820312 -4.191406 0.71875 -4.421875 C 0.613281 -4.660156 0.5625 -4.929688 0.5625 -5.234375 C 0.5625 -5.648438 0.671875 -6.003906 0.890625 -6.296875 C 1.109375 -6.597656 1.40625 -6.832031 1.78125 -7 C 2.15625 -7.164062 2.578125 -7.25 3.046875 -7.25 C 3.472656 -7.25 3.875 -7.179688 4.25 -7.046875 C 4.625 -6.910156 4.925781 -6.734375 5.15625 -6.515625 C 5.3125 -6.367188 5.390625 -6.210938 5.390625 -6.046875 C 5.390625 -5.921875 5.335938 -5.804688 5.234375 -5.703125 C 5.140625 -5.597656 5.03125 -5.546875 4.90625 -5.546875 C 4.8125 -5.546875 4.726562 -5.570312 4.65625 -5.625 C 4.550781 -5.75 4.40625 -5.851562 4.21875 -5.9375 C 4.039062 -6.03125 3.847656 -6.109375 3.640625 -6.171875 C 3.429688 -6.234375 3.234375 -6.265625 3.046875 -6.265625 C 2.734375 -6.265625 2.46875 -6.222656 2.25 -6.140625 C 2.03125 -6.054688 1.863281 -5.941406 1.75 -5.796875 C 1.632812 -5.648438 1.578125 -5.476562 1.578125 -5.28125 C 1.578125 -5.039062 1.644531 -4.847656 1.78125 -4.703125 C 1.914062 -4.554688 2.097656 -4.4375 2.328125 -4.34375 C 2.566406 -4.25 2.84375 -4.164062 3.15625 -4.09375 C 3.53125 -4.007812 3.863281 -3.914062 4.15625 -3.8125 C 4.457031 -3.707031 4.707031 -3.578125 4.90625 -3.421875 C 5.113281 -3.265625 5.269531 -3.066406 5.375 -2.828125 C 5.488281 -2.585938 5.546875 -2.289062 5.546875 -1.9375 C 5.546875 -1.53125 5.425781 -1.171875 5.1875 -0.859375 C 4.957031 -0.554688 4.65625 -0.316406 4.28125 -0.140625 C 3.90625 0.0234375 3.484375 0.109375 3.015625 0.109375 Z M 3.015625 0.109375 "/></g></g></g><g fill="#000000" fill-opacity="1"><g transform="translate(196.258634, 290.203692)"><g><path d="M 5.859375 -2.6875 C 5.859375 -2.132812 5.738281 -1.648438 5.5 -1.234375 C 5.257812 -0.816406 4.9375 -0.488281 4.53125 -0.25 C 4.125 -0.0078125 3.664062 0.109375 3.15625 0.109375 C 2.644531 0.109375 2.179688 -0.0078125 1.765625 -0.25 C 1.359375 -0.488281 1.035156 -0.816406 0.796875 -1.234375 C 0.554688 -1.648438 0.4375 -2.132812 0.4375 -2.6875 C 0.4375 -3.238281 0.554688 -3.722656 0.796875 -4.140625 C 1.035156 -4.554688 1.359375 -4.882812 1.765625 -5.125 C 2.179688 -5.363281 2.644531 -5.484375 3.15625 -5.484375 C 3.664062 -5.484375 4.125 -5.363281 4.53125 -5.125 C 4.9375 -4.882812 5.257812 -4.554688 5.5 -4.140625 C 5.738281 -3.722656 5.859375 -3.238281 5.859375 -2.6875 Z M 4.84375 -2.6875 C 4.84375 -3.0625 4.765625 -3.382812 4.609375 -3.65625 C 4.460938 -3.9375 4.257812 -4.15625 4 -4.3125 C 3.75 -4.46875 3.46875 -4.546875 3.15625 -4.546875 C 2.84375 -4.546875 2.554688 -4.46875 2.296875 -4.3125 C 2.035156 -4.15625 1.828125 -3.9375 1.671875 -3.65625 C 1.523438 -3.382812 1.453125 -3.0625 1.453125 -2.6875 C 1.453125 -2.320312 1.523438 -2 1.671875 -1.71875 C 1.828125 -1.445312 2.035156 -1.234375 2.296875 -1.078125 C 2.554688 -0.921875 2.84375 -0.84375 3.15625 -0.84375 C 3.46875 -0.84375 3.75 -0.921875 4 -1.078125 C 4.257812 -1.234375 4.460938 -1.445312 4.609375 -1.71875 C 4.765625 -2 4.84375 -2.320312 4.84375 -2.6875 Z M 4.84375 -2.6875 "/></g></g></g><g fill="#000000" fill-opacity="1"><g transform="translate(203.283578, 290.203692)"><g><path d="M 3.21875 -7.546875 C 3.34375 -7.546875 3.472656 -7.523438 3.609375 -7.484375 C 3.742188 -7.453125 3.859375 -7.394531 3.953125 -7.3125 C 4.046875 -7.238281 4.09375 -7.132812 4.09375 -7 C 4.09375 -6.863281 4.050781 -6.753906 3.96875 -6.671875 C 3.882812 -6.585938 3.789062 -6.546875 3.6875 -6.546875 C 3.613281 -6.546875 3.519531 -6.554688 3.40625 -6.578125 C 3.289062 -6.609375 3.175781 -6.625 3.0625 -6.625 C 2.90625 -6.625 2.78125 -6.585938 2.6875 -6.515625 C 2.59375 -6.453125 2.523438 -6.363281 2.484375 -6.25 C 2.441406 -6.144531 2.421875 -6.046875 2.421875 -5.953125 L 2.421875 -0.515625 C 2.421875 -0.367188 2.367188 -0.242188 2.265625 -0.140625 C 2.171875 -0.046875 2.050781 0 1.90625 0 C 1.757812 0 1.632812 -0.046875 1.53125 -0.140625 C 1.4375 -0.242188 1.390625 -0.367188 1.390625 -0.515625 L 1.390625 -5.9375 C 1.390625 -6.40625 1.546875 -6.789062 1.859375 -7.09375 C 2.171875 -7.394531 2.625 -7.546875 3.21875 -7.546875 Z M 3.421875 -5.28125 C 3.554688 -5.28125 3.664062 -5.234375 3.75 -5.140625 C 3.84375 -5.054688 3.890625 -4.945312 3.890625 -4.8125 C 3.890625 -4.675781 3.84375 -4.5625 3.75 -4.46875 C 3.664062 -4.382812 3.554688 -4.34375 3.421875 -4.34375 L 0.78125 -4.34375 C 0.644531 -4.34375 0.53125 -4.382812 0.4375 -4.46875 C 0.351562 -4.5625 0.3125 -4.675781 0.3125 -4.8125 C 0.3125 -4.945312 0.351562 -5.054688 0.4375 -5.140625 C 0.53125 -5.234375 0.644531 -5.28125 0.78125 -5.28125 Z M 3.421875 -5.28125 "/></g></g></g><g fill="#000000" fill-opacity="1"><g transform="translate(208.208302, 290.203692)"><g><path d="M 0.640625 -5.3125 L 3.046875 -5.3125 C 3.179688 -5.3125 3.289062 -5.265625 3.375 -5.171875 C 3.46875 -5.078125 3.515625 -4.960938 3.515625 -4.828125 C 3.515625 -4.691406 3.46875 -4.578125 3.375 -4.484375 C 3.289062 -4.398438 3.179688 -4.359375 3.046875 -4.359375 L 0.640625 -4.359375 C 0.503906 -4.359375 0.390625 -4.40625 0.296875 -4.5 C 0.203125 -4.59375 0.15625 -4.707031 0.15625 -4.84375 C 0.15625 -4.976562 0.203125 -5.085938 0.296875 -5.171875 C 0.390625 -5.265625 0.503906 -5.3125 0.640625 -5.3125 Z M 1.71875 -6.625 C 1.863281 -6.625 1.984375 -6.578125 2.078125 -6.484375 C 2.171875 -6.390625 2.21875 -6.265625 2.21875 -6.109375 L 2.21875 -1.375 C 2.21875 -1.25 2.238281 -1.148438 2.28125 -1.078125 C 2.320312 -1.003906 2.378906 -0.953125 2.453125 -0.921875 C 2.523438 -0.898438 2.597656 -0.890625 2.671875 -0.890625 C 2.742188 -0.890625 2.804688 -0.898438 2.859375 -0.921875 C 2.921875 -0.953125 2.992188 -0.96875 3.078125 -0.96875 C 3.160156 -0.96875 3.234375 -0.929688 3.296875 -0.859375 C 3.367188 -0.785156 3.40625 -0.679688 3.40625 -0.546875 C 3.40625 -0.390625 3.316406 -0.257812 3.140625 -0.15625 C 2.960938 -0.0507812 2.773438 0 2.578125 0 C 2.453125 0 2.3125 -0.0078125 2.15625 -0.03125 C 2 -0.0507812 1.847656 -0.101562 1.703125 -0.1875 C 1.554688 -0.269531 1.4375 -0.398438 1.34375 -0.578125 C 1.25 -0.753906 1.203125 -1.007812 1.203125 -1.34375 L 1.203125 -6.109375 C 1.203125 -6.265625 1.25 -6.390625 1.34375 -6.484375 C 1.445312 -6.578125 1.570312 -6.625 1.71875 -6.625 Z M 1.71875 -6.625 "/></g></g></g><g fill="#000000" fill-opacity="1"><g transform="translate(212.878143, 290.203692)"><g><path d="M 6.96875 -5.421875 C 7.09375 -5.421875 7.203125 -5.367188 7.296875 -5.265625 C 7.398438 -5.171875 7.453125 -5.046875 7.453125 -4.890625 C 7.453125 -4.859375 7.445312 -4.820312 7.4375 -4.78125 C 7.4375 -4.75 7.429688 -4.71875 7.421875 -4.6875 L 5.859375 -0.328125 C 5.816406 -0.210938 5.742188 -0.125 5.640625 -0.0625 C 5.535156 -0.0078125 5.429688 0.0078125 5.328125 0 C 5.128906 -0.0078125 4.984375 -0.117188 4.890625 -0.328125 L 3.734375 -3.390625 L 3.96875 -3.359375 L 2.90625 -0.328125 C 2.8125 -0.117188 2.664062 -0.0078125 2.46875 0 C 2.363281 0.0078125 2.257812 -0.0078125 2.15625 -0.0625 C 2.050781 -0.125 1.976562 -0.210938 1.9375 -0.328125 L 0.375 -4.6875 C 0.34375 -4.75 0.328125 -4.816406 0.328125 -4.890625 C 0.328125 -5.023438 0.375 -5.144531 0.46875 -5.25 C 0.5625 -5.363281 0.6875 -5.421875 0.84375 -5.421875 C 0.945312 -5.421875 1.039062 -5.390625 1.125 -5.328125 C 1.207031 -5.273438 1.269531 -5.195312 1.3125 -5.09375 L 2.609375 -1.40625 L 2.375 -1.421875 L 3.4375 -4.21875 C 3.53125 -4.425781 3.6875 -4.53125 3.90625 -4.53125 C 4.03125 -4.53125 4.125 -4.5 4.1875 -4.4375 C 4.257812 -4.382812 4.316406 -4.3125 4.359375 -4.21875 L 5.4375 -1.421875 L 5.15625 -1.390625 L 6.484375 -5.09375 C 6.546875 -5.3125 6.707031 -5.421875 6.96875 -5.421875 Z M 6.96875 -5.421875 "/></g></g></g><g fill="#000000" fill-opacity="1"><g transform="translate(221.391597, 290.203692)"><g><path d="M 5.109375 -5.453125 C 5.265625 -5.453125 5.390625 -5.398438 5.484375 -5.296875 C 5.578125 -5.203125 5.625 -5.078125 5.625 -4.921875 L 5.625 -0.515625 C 5.625 -0.367188 5.578125 -0.242188 5.484375 -0.140625 C 5.390625 -0.046875 5.265625 0 5.109375 0 C 4.960938 0 4.84375 -0.046875 4.75 -0.140625 C 4.65625 -0.242188 4.609375 -0.367188 4.609375 -0.515625 L 4.609375 -1.25 L 4.8125 -1.21875 C 4.8125 -1.101562 4.757812 -0.96875 4.65625 -0.8125 C 4.5625 -0.664062 4.429688 -0.519531 4.265625 -0.375 C 4.097656 -0.238281 3.894531 -0.125 3.65625 -0.03125 C 3.425781 0.0625 3.179688 0.109375 2.921875 0.109375 C 2.453125 0.109375 2.03125 -0.0078125 1.65625 -0.25 C 1.28125 -0.5 0.984375 -0.832031 0.765625 -1.25 C 0.546875 -1.675781 0.4375 -2.15625 0.4375 -2.6875 C 0.4375 -3.238281 0.546875 -3.722656 0.765625 -4.140625 C 0.984375 -4.566406 1.273438 -4.894531 1.640625 -5.125 C 2.015625 -5.363281 2.429688 -5.484375 2.890625 -5.484375 C 3.179688 -5.484375 3.453125 -5.4375 3.703125 -5.34375 C 3.953125 -5.25 4.164062 -5.125 4.34375 -4.96875 C 4.53125 -4.820312 4.671875 -4.664062 4.765625 -4.5 C 4.867188 -4.332031 4.921875 -4.175781 4.921875 -4.03125 L 4.609375 -4 L 4.609375 -4.921875 C 4.609375 -5.066406 4.65625 -5.191406 4.75 -5.296875 C 4.84375 -5.398438 4.960938 -5.453125 5.109375 -5.453125 Z M 3.03125 -0.84375 C 3.351562 -0.84375 3.632812 -0.921875 3.875 -1.078125 C 4.125 -1.242188 4.316406 -1.46875 4.453125 -1.75 C 4.585938 -2.03125 4.65625 -2.34375 4.65625 -2.6875 C 4.65625 -3.039062 4.585938 -3.359375 4.453125 -3.640625 C 4.316406 -3.921875 4.125 -4.140625 3.875 -4.296875 C 3.632812 -4.460938 3.351562 -4.546875 3.03125 -4.546875 C 2.71875 -4.546875 2.441406 -4.460938 2.203125 -4.296875 C 1.960938 -4.140625 1.769531 -3.921875 1.625 -3.640625 C 1.488281 -3.359375 1.421875 -3.039062 1.421875 -2.6875 C 1.421875 -2.34375 1.488281 -2.03125 1.625 -1.75 C 1.769531 -1.46875 1.960938 -1.242188 2.203125 -1.078125 C 2.441406 -0.921875 2.71875 -0.84375 3.03125 -0.84375 Z M 3.03125 -0.84375 "/></g></g></g><g fill="#000000" fill-opacity="1"><g transform="translate(228.457316, 290.203692)"><g><path d="M 1.21875 0 C 1.070312 0 0.953125 -0.046875 0.859375 -0.140625 C 0.765625 -0.242188 0.71875 -0.367188 0.71875 -0.515625 L 0.71875 -4.84375 C 0.71875 -5 0.765625 -5.125 0.859375 -5.21875 C 0.953125 -5.3125 1.070312 -5.359375 1.21875 -5.359375 C 1.363281 -5.359375 1.484375 -5.3125 1.578125 -5.21875 C 1.679688 -5.125 1.734375 -5 1.734375 -4.84375 L 1.734375 -3.703125 L 1.625 -4.140625 C 1.6875 -4.328125 1.769531 -4.503906 1.875 -4.671875 C 1.988281 -4.835938 2.125 -4.976562 2.28125 -5.09375 C 2.4375 -5.21875 2.613281 -5.3125 2.8125 -5.375 C 3.007812 -5.445312 3.210938 -5.484375 3.421875 -5.484375 C 3.597656 -5.484375 3.75 -5.4375 3.875 -5.34375 C 4.007812 -5.25 4.078125 -5.128906 4.078125 -4.984375 C 4.078125 -4.804688 4.023438 -4.671875 3.921875 -4.578125 C 3.828125 -4.492188 3.722656 -4.453125 3.609375 -4.453125 C 3.503906 -4.453125 3.40625 -4.472656 3.3125 -4.515625 C 3.21875 -4.566406 3.109375 -4.59375 2.984375 -4.59375 C 2.835938 -4.59375 2.6875 -4.550781 2.53125 -4.46875 C 2.382812 -4.394531 2.25 -4.285156 2.125 -4.140625 C 2.007812 -3.992188 1.914062 -3.820312 1.84375 -3.625 C 1.769531 -3.4375 1.734375 -3.21875 1.734375 -2.96875 L 1.734375 -0.515625 C 1.734375 -0.367188 1.679688 -0.242188 1.578125 -0.140625 C 1.484375 -0.046875 1.363281 0 1.21875 0 Z M 1.21875 0 "/></g></g></g><g fill="#000000" fill-opacity="1"><g transform="translate(233.453406, 290.203692)"><g><path d="M 3.21875 0.109375 C 2.644531 0.109375 2.148438 -0.0078125 1.734375 -0.25 C 1.328125 -0.488281 1.007812 -0.8125 0.78125 -1.21875 C 0.550781 -1.632812 0.4375 -2.101562 0.4375 -2.625 C 0.4375 -3.226562 0.554688 -3.742188 0.796875 -4.171875 C 1.035156 -4.597656 1.347656 -4.921875 1.734375 -5.140625 C 2.128906 -5.367188 2.546875 -5.484375 2.984375 -5.484375 C 3.316406 -5.484375 3.628906 -5.414062 3.921875 -5.28125 C 4.222656 -5.15625 4.488281 -4.972656 4.71875 -4.734375 C 4.957031 -4.503906 5.144531 -4.226562 5.28125 -3.90625 C 5.414062 -3.59375 5.488281 -3.25 5.5 -2.875 C 5.488281 -2.738281 5.429688 -2.625 5.328125 -2.53125 C 5.234375 -2.445312 5.117188 -2.40625 4.984375 -2.40625 L 1.015625 -2.40625 L 0.765625 -3.28125 L 4.609375 -3.28125 L 4.40625 -3.09375 L 4.40625 -3.34375 C 4.394531 -3.582031 4.316406 -3.789062 4.171875 -3.96875 C 4.023438 -4.15625 3.847656 -4.296875 3.640625 -4.390625 C 3.429688 -4.492188 3.210938 -4.546875 2.984375 -4.546875 C 2.773438 -4.546875 2.578125 -4.507812 2.390625 -4.4375 C 2.203125 -4.375 2.035156 -4.269531 1.890625 -4.125 C 1.742188 -3.988281 1.628906 -3.800781 1.546875 -3.5625 C 1.460938 -3.332031 1.421875 -3.039062 1.421875 -2.6875 C 1.421875 -2.3125 1.5 -1.984375 1.65625 -1.703125 C 1.8125 -1.429688 2.019531 -1.21875 2.28125 -1.0625 C 2.550781 -0.914062 2.84375 -0.84375 3.15625 -0.84375 C 3.414062 -0.84375 3.625 -0.863281 3.78125 -0.90625 C 3.945312 -0.957031 4.082031 -1.019531 4.1875 -1.09375 C 4.300781 -1.175781 4.398438 -1.25 4.484375 -1.3125 C 4.578125 -1.375 4.675781 -1.40625 4.78125 -1.40625 C 4.90625 -1.40625 5.007812 -1.363281 5.09375 -1.28125 C 5.175781 -1.195312 5.21875 -1.097656 5.21875 -0.984375 C 5.21875 -0.828125 5.140625 -0.691406 4.984375 -0.578125 C 4.804688 -0.398438 4.554688 -0.238281 4.234375 -0.09375 C 3.910156 0.0390625 3.570312 0.109375 3.21875 0.109375 Z M 3.21875 0.109375 "/></g></g></g><g fill="#000000" fill-opacity="1"><g transform="translate(163.53025, 304.453691)"><g><path d="M 1.34375 -7.140625 L 4.875 -7.140625 C 5.019531 -7.140625 5.140625 -7.09375 5.234375 -7 C 5.335938 -6.90625 5.390625 -6.785156 5.390625 -6.640625 C 5.390625 -6.492188 5.335938 -6.375 5.234375 -6.28125 C 5.140625 -6.195312 5.019531 -6.15625 4.875 -6.15625 L 1.796875 -6.15625 L 1.890625 -6.34375 L 1.890625 -4.046875 L 1.8125 -4.15625 L 4.421875 -4.15625 C 4.554688 -4.15625 4.671875 -4.101562 4.765625 -4 C 4.867188 -3.90625 4.921875 -3.785156 4.921875 -3.640625 C 4.921875 -3.492188 4.867188 -3.375 4.765625 -3.28125 C 4.671875 -3.195312 4.554688 -3.15625 4.421875 -3.15625 L 1.828125 -3.15625 L 1.890625 -3.25 L 1.890625 -0.890625 L 1.828125 -0.984375 L 4.875 -0.984375 C 5.019531 -0.984375 5.140625 -0.929688 5.234375 -0.828125 C 5.335938 -0.734375 5.390625 -0.617188 5.390625 -0.484375 C 5.390625 -0.347656 5.335938 -0.234375 5.234375 -0.140625 C 5.140625 -0.046875 5.019531 0 4.875 0 L 1.34375 0 C 1.195312 0 1.070312 -0.046875 0.96875 -0.140625 C 0.875 -0.242188 0.828125 -0.367188 0.828125 -0.515625 L 0.828125 -6.625 C 0.828125 -6.769531 0.875 -6.890625 0.96875 -6.984375 C 1.070312 -7.085938 1.195312 -7.140625 1.34375 -7.140625 Z M 1.34375 -7.140625 "/></g></g></g><g fill="#000000" fill-opacity="1"><g transform="translate(170.086215, 304.453691)"><g><path d="M 3.484375 -5.484375 C 3.960938 -5.484375 4.332031 -5.382812 4.59375 -5.1875 C 4.863281 -4.988281 5.050781 -4.71875 5.15625 -4.375 C 5.257812 -4.039062 5.3125 -3.664062 5.3125 -3.25 L 5.3125 -0.515625 C 5.3125 -0.367188 5.257812 -0.242188 5.15625 -0.140625 C 5.0625 -0.046875 4.945312 0 4.8125 0 C 4.65625 0 4.53125 -0.046875 4.4375 -0.140625 C 4.34375 -0.242188 4.296875 -0.367188 4.296875 -0.515625 L 4.296875 -3.25 C 4.296875 -3.488281 4.257812 -3.703125 4.1875 -3.890625 C 4.125 -4.085938 4.007812 -4.242188 3.84375 -4.359375 C 3.675781 -4.484375 3.441406 -4.546875 3.140625 -4.546875 C 2.859375 -4.546875 2.613281 -4.484375 2.40625 -4.359375 C 2.195312 -4.242188 2.03125 -4.085938 1.90625 -3.890625 C 1.789062 -3.703125 1.734375 -3.488281 1.734375 -3.25 L 1.734375 -0.515625 C 1.734375 -0.367188 1.679688 -0.242188 1.578125 -0.140625 C 1.484375 -0.046875 1.363281 0 1.21875 0 C 1.070312 0 0.953125 -0.046875 0.859375 -0.140625 C 0.765625 -0.242188 0.71875 -0.367188 0.71875 -0.515625 L 0.71875 -4.84375 C 0.71875 -5 0.765625 -5.125 0.859375 -5.21875 C 0.953125 -5.3125 1.070312 -5.359375 1.21875 -5.359375 C 1.363281 -5.359375 1.484375 -5.3125 1.578125 -5.21875 C 1.679688 -5.125 1.734375 -5 1.734375 -4.84375 L 1.734375 -4.28125 L 1.546875 -4.171875 C 1.597656 -4.316406 1.679688 -4.46875 1.796875 -4.625 C 1.921875 -4.78125 2.066406 -4.921875 2.234375 -5.046875 C 2.398438 -5.179688 2.585938 -5.285156 2.796875 -5.359375 C 3.015625 -5.441406 3.242188 -5.484375 3.484375 -5.484375 Z M 3.484375 -5.484375 "/></g></g></g><g fill="#000000" fill-opacity="1"><g transform="translate(176.835883, 304.453691)"><g><path d="M 2.953125 -5.484375 C 3.242188 -5.484375 3.507812 -5.4375 3.75 -5.34375 C 4 -5.25 4.210938 -5.128906 4.390625 -4.984375 C 4.566406 -4.835938 4.707031 -4.6875 4.8125 -4.53125 C 4.914062 -4.375 4.96875 -4.238281 4.96875 -4.125 L 4.734375 -4.109375 L 4.734375 -4.921875 C 4.734375 -5.066406 4.78125 -5.191406 4.875 -5.296875 C 4.96875 -5.398438 5.09375 -5.453125 5.25 -5.453125 C 5.394531 -5.453125 5.515625 -5.398438 5.609375 -5.296875 C 5.703125 -5.203125 5.75 -5.078125 5.75 -4.921875 L 5.75 -0.421875 C 5.75 0.148438 5.625 0.617188 5.375 0.984375 C 5.132812 1.347656 4.8125 1.613281 4.40625 1.78125 C 4.007812 1.957031 3.566406 2.046875 3.078125 2.046875 C 2.910156 2.046875 2.707031 2.019531 2.46875 1.96875 C 2.238281 1.925781 2.023438 1.875 1.828125 1.8125 C 1.640625 1.75 1.507812 1.6875 1.4375 1.625 C 1.28125 1.550781 1.175781 1.457031 1.125 1.34375 C 1.070312 1.238281 1.070312 1.128906 1.125 1.015625 C 1.1875 0.867188 1.273438 0.773438 1.390625 0.734375 C 1.515625 0.703125 1.648438 0.71875 1.796875 0.78125 C 1.859375 0.800781 1.960938 0.835938 2.109375 0.890625 C 2.253906 0.941406 2.414062 0.988281 2.59375 1.03125 C 2.769531 1.082031 2.9375 1.109375 3.09375 1.109375 C 3.632812 1.109375 4.039062 0.976562 4.3125 0.71875 C 4.59375 0.46875 4.734375 0.125 4.734375 -0.3125 L 4.734375 -1.21875 L 4.84375 -1.15625 C 4.820312 -1.007812 4.757812 -0.863281 4.65625 -0.71875 C 4.550781 -0.570312 4.410156 -0.4375 4.234375 -0.3125 C 4.066406 -0.1875 3.875 -0.0820312 3.65625 0 C 3.4375 0.0703125 3.210938 0.109375 2.984375 0.109375 C 2.492188 0.109375 2.054688 -0.0078125 1.671875 -0.25 C 1.296875 -0.5 0.992188 -0.832031 0.765625 -1.25 C 0.546875 -1.664062 0.4375 -2.144531 0.4375 -2.6875 C 0.4375 -3.238281 0.546875 -3.722656 0.765625 -4.140625 C 0.992188 -4.554688 1.296875 -4.882812 1.671875 -5.125 C 2.054688 -5.363281 2.484375 -5.484375 2.953125 -5.484375 Z M 3.109375 -4.546875 C 2.773438 -4.546875 2.476562 -4.460938 2.21875 -4.296875 C 1.96875 -4.140625 1.769531 -3.921875 1.625 -3.640625 C 1.488281 -3.359375 1.421875 -3.039062 1.421875 -2.6875 C 1.421875 -2.332031 1.488281 -2.015625 1.625 -1.734375 C 1.769531 -1.460938 1.96875 -1.242188 2.21875 -1.078125 C 2.476562 -0.921875 2.773438 -0.84375 3.109375 -0.84375 C 3.441406 -0.84375 3.734375 -0.921875 3.984375 -1.078125 C 4.234375 -1.234375 4.425781 -1.453125 4.5625 -1.734375 C 4.707031 -2.015625 4.78125 -2.332031 4.78125 -2.6875 C 4.78125 -3.039062 4.707031 -3.359375 4.5625 -3.640625 C 4.425781 -3.929688 4.234375 -4.15625 3.984375 -4.3125 C 3.734375 -4.46875 3.441406 -4.546875 3.109375 -4.546875 Z M 3.109375 -4.546875 "/></g></g></g><g fill="#000000" fill-opacity="1"><g transform="translate(184.023951, 304.453691)"><g><path d="M 1.671875 -0.515625 C 1.671875 -0.367188 1.625 -0.242188 1.53125 -0.140625 C 1.4375 -0.046875 1.3125 0 1.15625 0 C 1.019531 0 0.898438 -0.046875 0.796875 -0.140625 C 0.703125 -0.242188 0.65625 -0.367188 0.65625 -0.515625 L 0.65625 -4.890625 C 0.65625 -5.035156 0.703125 -5.15625 0.796875 -5.25 C 0.898438 -5.351562 1.019531 -5.40625 1.15625 -5.40625 C 1.3125 -5.40625 1.4375 -5.351562 1.53125 -5.25 C 1.625 -5.15625 1.671875 -5.035156 1.671875 -4.890625 Z M 1.15625 -6.078125 C 0.957031 -6.078125 0.8125 -6.113281 0.71875 -6.1875 C 0.632812 -6.257812 0.59375 -6.378906 0.59375 -6.546875 L 0.59375 -6.71875 C 0.59375 -6.882812 0.640625 -7 0.734375 -7.0625 C 0.828125 -7.132812 0.96875 -7.171875 1.15625 -7.171875 C 1.363281 -7.171875 1.507812 -7.132812 1.59375 -7.0625 C 1.6875 -6.988281 1.734375 -6.875 1.734375 -6.71875 L 1.734375 -6.546875 C 1.734375 -6.367188 1.6875 -6.242188 1.59375 -6.171875 C 1.5 -6.109375 1.351562 -6.078125 1.15625 -6.078125 Z M 1.15625 -6.078125 "/></g></g></g><g fill="#000000" fill-opacity="1"><g transform="translate(187.09313, 304.453691)"><g><path d="M 3.484375 -5.484375 C 3.960938 -5.484375 4.332031 -5.382812 4.59375 -5.1875 C 4.863281 -4.988281 5.050781 -4.71875 5.15625 -4.375 C 5.257812 -4.039062 5.3125 -3.664062 5.3125 -3.25 L 5.3125 -0.515625 C 5.3125 -0.367188 5.257812 -0.242188 5.15625 -0.140625 C 5.0625 -0.046875 4.945312 0 4.8125 0 C 4.65625 0 4.53125 -0.046875 4.4375 -0.140625 C 4.34375 -0.242188 4.296875 -0.367188 4.296875 -0.515625 L 4.296875 -3.25 C 4.296875 -3.488281 4.257812 -3.703125 4.1875 -3.890625 C 4.125 -4.085938 4.007812 -4.242188 3.84375 -4.359375 C 3.675781 -4.484375 3.441406 -4.546875 3.140625 -4.546875 C 2.859375 -4.546875 2.613281 -4.484375 2.40625 -4.359375 C 2.195312 -4.242188 2.03125 -4.085938 1.90625 -3.890625 C 1.789062 -3.703125 1.734375 -3.488281 1.734375 -3.25 L 1.734375 -0.515625 C 1.734375 -0.367188 1.679688 -0.242188 1.578125 -0.140625 C 1.484375 -0.046875 1.363281 0 1.21875 0 C 1.070312 0 0.953125 -0.046875 0.859375 -0.140625 C 0.765625 -0.242188 0.71875 -0.367188 0.71875 -0.515625 L 0.71875 -4.84375 C 0.71875 -5 0.765625 -5.125 0.859375 -5.21875 C 0.953125 -5.3125 1.070312 -5.359375 1.21875 -5.359375 C 1.363281 -5.359375 1.484375 -5.3125 1.578125 -5.21875 C 1.679688 -5.125 1.734375 -5 1.734375 -4.84375 L 1.734375 -4.28125 L 1.546875 -4.171875 C 1.597656 -4.316406 1.679688 -4.46875 1.796875 -4.625 C 1.921875 -4.78125 2.066406 -4.921875 2.234375 -5.046875 C 2.398438 -5.179688 2.585938 -5.285156 2.796875 -5.359375 C 3.015625 -5.441406 3.242188 -5.484375 3.484375 -5.484375 Z M 3.484375 -5.484375 "/></g></g></g><g fill="#000000" fill-opacity="1"><g transform="translate(193.842798, 304.453691)"><g><path d="M 3.21875 0.109375 C 2.644531 0.109375 2.148438 -0.0078125 1.734375 -0.25 C 1.328125 -0.488281 1.007812 -0.8125 0.78125 -1.21875 C 0.550781 -1.632812 0.4375 -2.101562 0.4375 -2.625 C 0.4375 -3.226562 0.554688 -3.742188 0.796875 -4.171875 C 1.035156 -4.597656 1.347656 -4.921875 1.734375 -5.140625 C 2.128906 -5.367188 2.546875 -5.484375 2.984375 -5.484375 C 3.316406 -5.484375 3.628906 -5.414062 3.921875 -5.28125 C 4.222656 -5.15625 4.488281 -4.972656 4.71875 -4.734375 C 4.957031 -4.503906 5.144531 -4.226562 5.28125 -3.90625 C 5.414062 -3.59375 5.488281 -3.25 5.5 -2.875 C 5.488281 -2.738281 5.429688 -2.625 5.328125 -2.53125 C 5.234375 -2.445312 5.117188 -2.40625 4.984375 -2.40625 L 1.015625 -2.40625 L 0.765625 -3.28125 L 4.609375 -3.28125 L 4.40625 -3.09375 L 4.40625 -3.34375 C 4.394531 -3.582031 4.316406 -3.789062 4.171875 -3.96875 C 4.023438 -4.15625 3.847656 -4.296875 3.640625 -4.390625 C 3.429688 -4.492188 3.210938 -4.546875 2.984375 -4.546875 C 2.773438 -4.546875 2.578125 -4.507812 2.390625 -4.4375 C 2.203125 -4.375 2.035156 -4.269531 1.890625 -4.125 C 1.742188 -3.988281 1.628906 -3.800781 1.546875 -3.5625 C 1.460938 -3.332031 1.421875 -3.039062 1.421875 -2.6875 C 1.421875 -2.3125 1.5 -1.984375 1.65625 -1.703125 C 1.8125 -1.429688 2.019531 -1.21875 2.28125 -1.0625 C 2.550781 -0.914062 2.84375 -0.84375 3.15625 -0.84375 C 3.414062 -0.84375 3.625 -0.863281 3.78125 -0.90625 C 3.945312 -0.957031 4.082031 -1.019531 4.1875 -1.09375 C 4.300781 -1.175781 4.398438 -1.25 4.484375 -1.3125 C 4.578125 -1.375 4.675781 -1.40625 4.78125 -1.40625 C 4.90625 -1.40625 5.007812 -1.363281 5.09375 -1.28125 C 5.175781 -1.195312 5.21875 -1.097656 5.21875 -0.984375 C 5.21875 -0.828125 5.140625 -0.691406 4.984375 -0.578125 C 4.804688 -0.398438 4.554688 -0.238281 4.234375 -0.09375 C 3.910156 0.0390625 3.570312 0.109375 3.21875 0.109375 Z M 3.21875 0.109375 "/></g></g></g><g fill="#000000" fill-opacity="1"><g transform="translate(200.510903, 304.453691)"><g><path d="M 3.21875 0.109375 C 2.644531 0.109375 2.148438 -0.0078125 1.734375 -0.25 C 1.328125 -0.488281 1.007812 -0.8125 0.78125 -1.21875 C 0.550781 -1.632812 0.4375 -2.101562 0.4375 -2.625 C 0.4375 -3.226562 0.554688 -3.742188 0.796875 -4.171875 C 1.035156 -4.597656 1.347656 -4.921875 1.734375 -5.140625 C 2.128906 -5.367188 2.546875 -5.484375 2.984375 -5.484375 C 3.316406 -5.484375 3.628906 -5.414062 3.921875 -5.28125 C 4.222656 -5.15625 4.488281 -4.972656 4.71875 -4.734375 C 4.957031 -4.503906 5.144531 -4.226562 5.28125 -3.90625 C 5.414062 -3.59375 5.488281 -3.25 5.5 -2.875 C 5.488281 -2.738281 5.429688 -2.625 5.328125 -2.53125 C 5.234375 -2.445312 5.117188 -2.40625 4.984375 -2.40625 L 1.015625 -2.40625 L 0.765625 -3.28125 L 4.609375 -3.28125 L 4.40625 -3.09375 L 4.40625 -3.34375 C 4.394531 -3.582031 4.316406 -3.789062 4.171875 -3.96875 C 4.023438 -4.15625 3.847656 -4.296875 3.640625 -4.390625 C 3.429688 -4.492188 3.210938 -4.546875 2.984375 -4.546875 C 2.773438 -4.546875 2.578125 -4.507812 2.390625 -4.4375 C 2.203125 -4.375 2.035156 -4.269531 1.890625 -4.125 C 1.742188 -3.988281 1.628906 -3.800781 1.546875 -3.5625 C 1.460938 -3.332031 1.421875 -3.039062 1.421875 -2.6875 C 1.421875 -2.3125 1.5 -1.984375 1.65625 -1.703125 C 1.8125 -1.429688 2.019531 -1.21875 2.28125 -1.0625 C 2.550781 -0.914062 2.84375 -0.84375 3.15625 -0.84375 C 3.414062 -0.84375 3.625 -0.863281 3.78125 -0.90625 C 3.945312 -0.957031 4.082031 -1.019531 4.1875 -1.09375 C 4.300781 -1.175781 4.398438 -1.25 4.484375 -1.3125 C 4.578125 -1.375 4.675781 -1.40625 4.78125 -1.40625 C 4.90625 -1.40625 5.007812 -1.363281 5.09375 -1.28125 C 5.175781 -1.195312 5.21875 -1.097656 5.21875 -0.984375 C 5.21875 -0.828125 5.140625 -0.691406 4.984375 -0.578125 C 4.804688 -0.398438 4.554688 -0.238281 4.234375 -0.09375 C 3.910156 0.0390625 3.570312 0.109375 3.21875 0.109375 Z M 3.21875 0.109375 "/></g></g></g><g fill="#000000" fill-opacity="1"><g transform="translate(207.179009, 304.453691)"><g><path d="M 1.21875 0 C 1.070312 0 0.953125 -0.046875 0.859375 -0.140625 C 0.765625 -0.242188 0.71875 -0.367188 0.71875 -0.515625 L 0.71875 -4.84375 C 0.71875 -5 0.765625 -5.125 0.859375 -5.21875 C 0.953125 -5.3125 1.070312 -5.359375 1.21875 -5.359375 C 1.363281 -5.359375 1.484375 -5.3125 1.578125 -5.21875 C 1.679688 -5.125 1.734375 -5 1.734375 -4.84375 L 1.734375 -3.703125 L 1.625 -4.140625 C 1.6875 -4.328125 1.769531 -4.503906 1.875 -4.671875 C 1.988281 -4.835938 2.125 -4.976562 2.28125 -5.09375 C 2.4375 -5.21875 2.613281 -5.3125 2.8125 -5.375 C 3.007812 -5.445312 3.210938 -5.484375 3.421875 -5.484375 C 3.597656 -5.484375 3.75 -5.4375 3.875 -5.34375 C 4.007812 -5.25 4.078125 -5.128906 4.078125 -4.984375 C 4.078125 -4.804688 4.023438 -4.671875 3.921875 -4.578125 C 3.828125 -4.492188 3.722656 -4.453125 3.609375 -4.453125 C 3.503906 -4.453125 3.40625 -4.472656 3.3125 -4.515625 C 3.21875 -4.566406 3.109375 -4.59375 2.984375 -4.59375 C 2.835938 -4.59375 2.6875 -4.550781 2.53125 -4.46875 C 2.382812 -4.394531 2.25 -4.285156 2.125 -4.140625 C 2.007812 -3.992188 1.914062 -3.820312 1.84375 -3.625 C 1.769531 -3.4375 1.734375 -3.21875 1.734375 -2.96875 L 1.734375 -0.515625 C 1.734375 -0.367188 1.679688 -0.242188 1.578125 -0.140625 C 1.484375 -0.046875 1.363281 0 1.21875 0 Z M 1.21875 0 "/></g></g></g></svg>